<svg version="1.1" id="Layer_1" xmlns="http://www.w3.org/2000/svg" xmlns:xlink="http://www.w3.org/1999/xlink" x="0px" y="0px"
	 width="100%" viewBox="0 0 2000 863" enable-background="new 0 0 2000 863" xml:space="preserve">
<path fill="#FEE98F" opacity="1.000000" stroke="none" 
	d="
M1361.000000,864.000000 
	C907.333435,864.000000 454.166840,864.000000 1.000182,864.000000 
	C1.000122,576.333496 1.000122,288.666931 1.000061,1.000298 
	C667.666443,1.000199 1334.332886,1.000199 2000.999512,1.000099 
	C2000.999634,288.666351 2000.999634,576.332703 2000.999756,863.999512 
	C1787.833374,864.000000 1574.666626,864.000000 1361.000000,864.000000 
M273.809814,501.797729 
	C287.362305,503.219269 303.267883,490.100983 298.482178,471.683899 
	C289.081879,435.508057 285.663574,399.018677 290.871643,361.876617 
	C296.925751,318.700775 316.896301,284.134521 354.661285,261.307312 
	C400.807465,233.414001 450.873932,220.953979 504.742340,226.889404 
	C564.811035,233.507996 607.385010,266.208069 636.484741,317.907349 
	C648.643982,339.509857 656.815735,362.720978 663.259583,386.606567 
	C667.150879,401.030365 678.354187,406.666748 689.550293,405.633789 
	C703.449158,404.351501 717.244873,401.862122 731.154297,400.802521 
	C755.805237,398.924683 780.086670,401.506287 803.431213,409.955109 
	C833.857300,420.966888 855.290466,441.482544 865.888855,472.277405 
	C879.335693,511.348755 877.476685,549.993286 860.081360,587.485352 
	C848.086792,613.337158 829.100708,632.661682 802.736267,644.160217 
	C780.968140,653.654236 758.026489,655.437073 734.648254,653.842590 
	C733.748291,653.781189 732.881226,653.237366 731.474060,652.728699 
	C732.431885,650.827332 733.175415,649.214172 734.035583,647.665833 
	C740.659790,635.741577 747.907043,624.119385 753.821106,611.853882 
	C766.088501,586.411926 775.167175,559.802673 780.066650,531.908264 
	C782.408386,518.575562 774.112549,506.148590 761.916199,504.040955 
	C748.075378,501.649139 736.025757,509.729218 733.151123,523.240417 
	C731.836060,529.421082 730.604675,535.636902 728.898132,541.713989 
	C717.038879,583.945251 698.360413,622.292358 665.334839,652.377930 
	C647.947937,668.217041 628.118958,679.738892 605.435486,686.205139 
	C571.214722,695.960266 536.948730,694.344666 502.747101,686.296387 
	C479.506134,680.827393 457.143097,672.693604 435.365479,662.932983 
	C428.275726,659.755371 421.005463,658.451965 413.609375,661.722046 
	C404.410736,665.789124 399.181030,672.776184 398.941284,683.028687 
	C398.685913,693.950867 404.076324,701.506653 413.753021,705.814331 
	C455.329529,724.322571 498.019379,738.843689 543.873230,742.230103 
	C569.687866,744.136536 595.086304,742.327881 620.060059,735.386963 
	C641.959229,729.300537 662.002930,719.375061 680.418823,706.097656 
	C681.680237,705.188110 683.031250,704.402954 684.868225,703.220337 
	C684.868225,707.245056 684.953186,710.403259 684.854553,713.555725 
	C684.213928,734.027832 683.286804,754.494812 682.974243,774.971497 
	C682.827515,784.587769 688.293152,791.515991 696.843689,795.193665 
	C705.509888,798.921143 714.019836,797.890381 721.668274,791.682617 
	C729.546082,785.288574 730.470459,776.439331 730.796448,767.323975 
	C731.522583,747.020325 732.285828,726.717041 732.800903,706.407715 
	C732.900574,702.478149 734.437378,701.957214 737.944580,701.860474 
	C750.738831,701.507385 763.645569,701.636780 776.286194,699.928406 
	C832.779358,692.293335 875.106018,663.424072 900.892212,612.468445 
	C927.145691,560.589478 929.254944,506.671906 909.340210,452.199127 
	C897.874268,420.836273 877.529419,396.194153 848.758789,378.943176 
	C820.215820,361.828766 788.753723,354.539917 755.882629,353.277771 
	C740.272339,352.678406 724.590942,353.728607 708.950073,354.270813 
	C705.189209,354.401184 703.044739,353.434784 702.011902,349.622467 
	C700.926758,345.616913 699.307556,341.752899 697.867310,337.847076 
	C686.010071,305.689972 670.099609,275.760468 647.181763,250.107849 
	C613.388855,212.282425 571.471497,188.796753 521.178040,180.521133 
	C499.165314,176.899002 477.059601,176.138901 454.968750,178.368073 
	C426.512024,181.239624 398.955750,188.167770 372.415527,199.028748 
	C345.862091,209.895157 321.040924,223.677521 299.764557,243.077866 
	C272.978485,267.502136 256.647583,298.154633 248.007401,333.100037 
	C245.100037,344.859009 245.202835,344.797485 233.303268,345.882996 
	C205.625107,348.407867 179.330673,355.689850 154.867126,369.090393 
	C128.035919,383.787811 106.909782,404.369110 92.521767,431.374847 
	C72.263901,469.398102 65.623352,510.175262 70.132339,552.778931 
	C72.083687,571.216553 78.175957,588.434937 88.503593,604.013000 
	C105.077324,629.012634 129.022034,644.078003 156.635361,653.789856 
	C177.941071,661.283203 200.020828,665.390015 222.659622,665.990601 
	C225.886551,666.076233 227.041748,667.309570 227.086349,670.465454 
	C227.199265,678.456055 227.631180,686.441650 227.788025,694.432190 
	C228.553085,733.406799 229.316177,772.381531 229.981216,811.357910 
	C230.251038,827.172302 236.911667,835.778015 252.526016,839.022095 
	C267.013336,842.032104 281.573303,844.725586 296.158264,847.226257 
	C332.962524,853.536621 370.092346,856.838684 407.386719,857.764526 
	C452.052124,858.873474 496.567108,856.849854 540.848999,850.213074 
	C574.198914,845.214722 606.845337,837.510193 638.895996,827.133057 
	C647.592590,824.317261 653.691895,818.800659 656.007141,809.820862 
	C660.729919,791.503113 643.765869,775.851501 625.052368,781.232422 
	C615.295288,784.038086 605.682373,787.359680 595.887146,790.015930 
	C560.127197,799.713074 523.720398,805.410950 486.765625,808.219666 
	C451.966614,810.864563 417.182007,810.739502 382.425201,808.688843 
	C348.870819,806.709290 315.501190,802.749634 282.474457,796.195007 
	C278.562714,795.418762 277.146515,794.052917 277.103882,790.115295 
	C276.921661,773.291077 276.449646,756.470215 276.158630,739.646851 
	C275.688904,712.492554 275.307800,685.336731 274.820007,658.182800 
	C274.712372,652.190613 274.531891,646.184570 274.006500,640.218262 
	C272.894409,627.588074 262.508209,618.036316 250.475098,618.114075 
	C241.335281,618.173096 232.173676,618.397095 223.057678,617.895264 
	C201.922775,616.731689 181.468597,612.388306 162.462875,602.740784 
	C139.158539,590.911316 123.597603,572.778625 118.679222,546.621887 
	C114.561234,524.721741 117.118675,503.153534 123.288231,481.977112 
	C129.320068,461.273438 139.835205,443.010498 155.549896,428.183472 
	C173.563278,411.187561 195.232788,400.972137 219.431320,396.097992 
	C226.326736,394.709106 233.306732,393.740204 240.969391,392.458008 
	C240.969391,395.873077 240.948196,398.001709 240.972565,400.129852 
	C241.290497,427.880127 244.865036,455.191711 251.796906,482.077942 
	C254.677887,493.252136 261.400330,500.027161 273.809814,501.797729 
M1201.056885,701.361755 
	C1212.661377,695.551636 1223.096924,688.093201 1231.222290,677.949829 
	C1238.305542,669.107300 1243.044312,659.132690 1243.145142,647.361511 
	C1243.349487,623.480591 1233.239990,604.123474 1215.306152,589.554504 
	C1181.412476,562.020325 1142.148682,553.688171 1099.415161,560.686768 
	C1089.956543,562.235779 1080.598755,564.437134 1071.234619,566.518127 
	C1057.368896,569.599609 1050.233276,576.397827 1048.324951,588.815735 
	C1043.500488,620.209778 1038.627808,651.599854 1034.243774,683.057007 
	C1030.637451,708.934631 1027.527954,734.900940 1028.001099,761.112915 
	C1028.238525,774.278320 1032.155884,786.413208 1039.948486,797.053589 
	C1054.379517,816.758240 1075.080078,824.800354 1098.392212,825.731262 
	C1129.579712,826.976746 1156.588501,816.001831 1179.808960,795.005737 
	C1203.989258,773.141724 1214.623901,736.138367 1198.652832,706.563782 
	C1197.217773,703.906555 1197.919678,702.614014 1201.056885,701.361755 
M1311.495850,591.989075 
	C1303.484619,601.130920 1297.924438,611.725281 1293.607422,622.965088 
	C1283.544312,649.164978 1280.114868,676.478333 1281.190308,704.338318 
	C1282.199829,730.496216 1288.269287,755.240234 1302.627319,777.692261 
	C1321.822998,807.709106 1352.761719,822.023315 1387.339844,815.222534 
	C1428.446411,807.137634 1456.191162,781.838196 1473.699341,744.869995 
	C1489.985718,710.481812 1491.887329,673.929443 1486.805786,636.866638 
	C1483.007446,609.163635 1470.527832,586.184631 1446.266968,571.085266 
	C1424.740112,557.687500 1401.021484,552.913452 1375.876587,556.160522 
	C1349.997192,559.502441 1328.551025,571.144287 1311.495850,591.989075 
M1264.134888,244.605942 
	C1251.225830,255.697861 1240.109619,268.322693 1233.635376,284.210693 
	C1216.386230,326.541321 1212.864014,369.987091 1225.167725,414.202454 
	C1230.995239,435.145386 1241.623657,453.773071 1258.725830,467.504028 
	C1285.822388,489.259125 1316.121338,489.753601 1346.802979,476.815491 
	C1382.608521,461.716675 1404.951416,433.679626 1417.126587,397.467224 
	C1428.023315,365.056976 1428.874634,331.708435 1422.678711,298.330231 
	C1416.967285,267.561859 1399.704712,244.779404 1370.646362,232.754623 
	C1333.602173,217.425186 1297.820801,220.094345 1264.134888,244.605942 
M1629.409546,239.066589 
	C1609.983276,227.452057 1588.961670,222.275467 1566.392578,223.865799 
	C1526.163330,226.700592 1497.926758,247.247971 1480.518311,283.078125 
	C1471.543579,301.549805 1467.310913,321.388306 1465.549194,341.772095 
	C1463.442871,366.143616 1463.884399,390.359436 1471.233521,413.951385 
	C1477.525391,434.149445 1487.165527,452.611572 1503.567749,466.410492 
	C1528.493774,487.380432 1557.021973,489.780029 1586.728149,479.259308 
	C1623.678955,466.172791 1647.406494,439.220184 1661.241943,403.358734 
	C1673.768677,370.889221 1675.060059,337.111298 1669.848755,303.055878 
	C1665.753052,276.290649 1653.099365,254.519791 1629.409546,239.066589 
M1757.897461,478.458069 
	C1762.839722,474.544983 1765.730591,469.501007 1766.395630,463.195068 
	C1766.674683,460.549896 1767.105713,457.920990 1767.403564,455.277496 
	C1769.973022,432.474213 1772.526001,409.669067 1775.088379,386.864990 
	C1775.691406,381.497589 1776.312378,376.132172 1777.009644,370.025452 
	C1778.362427,371.092163 1779.040039,371.520142 1779.589478,372.075165 
	C1797.297607,389.961731 1808.039917,411.313843 1810.867432,436.369202 
	C1812.935059,454.692871 1822.340942,465.087341 1840.718262,466.581299 
	C1853.820679,467.646423 1866.752441,461.064148 1868.103149,445.734497 
	C1868.689941,439.074310 1867.582642,432.152527 1866.481934,425.475281 
	C1861.568359,395.664459 1850.116699,368.675140 1830.904053,345.170013 
	C1828.728149,342.507965 1827.450562,340.535614 1830.878784,337.360413 
	C1852.274902,317.543884 1867.864380,293.336029 1881.930420,268.110199 
	C1892.263306,249.579514 1880.166870,232.774109 1864.255005,227.749405 
	C1851.043213,223.577362 1839.761353,228.119812 1832.654297,239.973053 
	C1830.085938,244.256607 1827.578369,248.576508 1825.033569,252.874268 
	C1815.430298,269.092804 1805.417969,285.020325 1791.468750,297.988739 
	C1788.641235,300.617523 1785.422607,302.825806 1781.174316,306.184479 
	C1781.174316,302.044586 1781.115967,299.622284 1781.183228,297.203461 
	C1781.765991,276.231110 1782.602539,255.262650 1782.902222,234.286438 
	C1783.176392,215.101440 1771.031616,203.860001 1751.920044,204.946045 
	C1736.968018,205.795715 1726.161499,217.069504 1725.933105,231.939438 
	C1725.782349,241.761658 1725.663940,251.589142 1725.237671,261.401520 
	C1723.937622,291.326996 1723.183350,321.298370 1720.923950,351.154022 
	C1718.427734,384.141632 1714.462158,417.017120 1711.223389,449.949982 
	C1710.286377,459.478241 1711.225464,468.715546 1717.906860,476.271790 
	C1727.759521,487.414368 1743.367554,488.367249 1757.897461,478.458069 
M1877.022583,696.497375 
	C1868.400513,685.615845 1857.710693,677.302673 1845.396606,670.996216 
	C1839.036011,667.738708 1832.435303,664.857300 1826.400513,661.075867 
	C1813.775635,653.165100 1812.565918,641.366455 1822.590820,630.505127 
	C1830.008545,622.468750 1839.554443,617.774475 1849.052490,612.962097 
	C1855.420532,609.735474 1860.137939,605.193298 1862.155762,598.096191 
	C1867.383179,579.710388 1848.577026,558.476013 1829.674072,561.445679 
	C1819.474731,563.048035 1810.965210,568.222534 1802.895142,574.173279 
	C1781.276123,590.114929 1765.363647,610.077393 1760.581299,637.223938 
	C1756.297119,661.542175 1763.736084,682.341064 1782.708374,697.859680 
	C1792.775391,706.094055 1804.741943,712.032959 1815.965454,718.818726 
	C1826.381104,725.116028 1836.223755,731.871399 1839.908203,744.390076 
	C1844.592407,760.305359 1837.540039,774.510498 1821.968262,778.276855 
	C1817.132812,779.446411 1812.170776,780.371582 1807.218384,780.717651 
	C1798.253174,781.344116 1790.031494,780.576538 1783.475586,772.479736 
	C1777.322510,764.880371 1768.094971,762.770996 1758.485474,764.111633 
	C1746.883545,765.730164 1737.484985,771.065857 1733.129639,782.486694 
	C1729.098511,793.057434 1734.047852,801.511658 1740.844849,809.251709 
	C1747.634033,816.982849 1755.450684,823.471924 1764.758789,827.814453 
	C1799.667114,844.100342 1833.183838,840.592041 1864.478516,818.901794 
	C1887.101562,803.221680 1897.977173,780.723999 1897.970581,753.166382 
	C1897.965576,732.009155 1890.397339,713.523071 1877.022583,696.497375 
M1595.831787,780.813599 
	C1590.531616,780.195068 1585.076904,779.886536 1581.533936,775.014648 
	C1571.949585,761.835144 1553.253784,761.035339 1540.076050,768.962524 
	C1527.880493,776.298889 1523.624023,790.801392 1531.005981,802.045471 
	C1538.863159,814.013489 1549.547241,822.992981 1562.525757,828.888123 
	C1590.311523,841.509155 1618.237549,840.817688 1645.522827,827.641724 
	C1675.818481,813.012024 1692.928101,788.833252 1693.677002,754.770752 
	C1694.481812,718.157471 1670.364380,683.195618 1635.441528,668.354309 
	C1631.169434,666.538635 1627.004883,664.351746 1623.066284,661.894958 
	C1616.304932,657.677612 1610.252075,652.313782 1612.080811,643.478027 
	C1613.096191,638.571655 1615.486938,632.834534 1619.177246,629.827332 
	C1627.085449,623.383240 1636.100098,618.233032 1644.930054,613.006348 
	C1651.224731,609.280518 1656.303589,604.819641 1657.915283,597.443604 
	C1660.354248,586.282654 1656.401978,576.951355 1648.405762,569.531677 
	C1639.184814,560.975647 1628.116943,558.392334 1616.522095,563.911316 
	C1587.318237,577.812012 1566.480347,599.434265 1557.534546,631.121521 
	C1550.228027,657.001892 1558.766846,683.624207 1580.396484,699.695190 
	C1591.420288,707.886047 1603.986938,713.975952 1615.673340,721.307007 
	C1624.228149,726.673584 1631.763794,733.051941 1635.276489,743.156616 
	C1641.202271,760.203125 1632.752319,775.596558 1615.068604,778.920898 
	C1609.052246,780.051819 1602.853882,780.214966 1595.831787,780.813599 
M1032.003662,293.512390 
	C1014.635315,312.871063 1002.700806,335.102386 997.406372,360.614075 
	C992.233093,385.542328 994.338013,409.797638 1007.052002,432.249268 
	C1021.515686,457.790833 1043.938354,472.807678 1072.380615,478.932495 
	C1102.758789,485.474243 1132.355225,480.268066 1161.417358,471.535553 
	C1174.896118,467.485413 1181.223877,456.080811 1179.959839,441.992676 
	C1178.335693,423.887970 1162.981445,412.912903 1145.272095,417.111969 
	C1138.641357,418.684174 1132.012329,420.387512 1125.288940,421.421021 
	C1109.401489,423.863190 1093.500977,424.629303 1077.787109,420.028717 
	C1061.569580,415.280670 1051.873413,402.353149 1051.996216,385.601013 
	C1052.263672,349.109589 1079.282593,315.472412 1114.990112,307.920105 
	C1122.704834,306.288422 1130.811279,306.293732 1138.753906,306.004211 
	C1150.771606,305.566071 1159.781860,299.076843 1162.383179,287.595520 
	C1163.391113,283.146790 1163.352905,278.284882 1162.868896,273.708771 
	C1161.641113,262.100098 1152.600952,252.148163 1141.189331,249.712112 
	C1129.101562,247.131729 1116.911743,248.292465 1105.021729,250.700577 
	C1076.138916,256.550293 1052.328369,271.452942 1032.003662,293.512390 
M770.740173,11.938531 
	C769.258728,12.124804 767.752136,12.196287 766.299744,12.514864 
	C749.273438,16.249557 739.527954,28.347244 733.339539,43.226124 
	C714.361145,88.856033 696.014343,134.748459 677.356140,180.511963 
	C674.449402,187.641418 674.571411,194.902863 676.394531,202.072052 
	C678.036011,208.527039 680.845947,215.243103 688.846985,214.877289 
	C697.166626,214.496902 705.530151,213.365372 710.781372,204.850189 
	C733.836548,167.464096 757.230042,130.286804 780.358276,92.945442 
	C788.148193,80.368317 796.162903,67.859688 802.871826,54.706150 
	C808.225647,44.209633 808.132202,32.987583 800.197876,23.224554 
	C792.891113,14.233746 782.973450,11.172212 770.740173,11.938531 
M725.459045,256.462555 
	C730.829651,257.930206 735.774414,256.900604 740.010803,253.415970 
	C751.963013,243.584763 763.838074,233.658936 775.684448,223.700058 
	C800.766907,202.613968 825.726624,181.380661 850.915283,160.422501 
	C860.637695,152.332916 868.672913,143.292755 871.192383,130.499893 
	C874.644104,112.974159 862.342590,98.255302 844.529541,97.845703 
	C833.542542,97.593063 824.724854,102.451477 817.066345,109.236908 
	C796.337402,127.602753 777.628235,147.986191 760.442444,169.658859 
	C747.533020,185.938629 735.582703,202.978699 723.201355,219.677338 
	C718.579163,225.911285 716.261353,232.982971 716.338257,240.662323 
	C716.403137,247.135864 717.359497,253.462448 725.459045,256.462555 
M810.742798,233.247726 
	C798.174072,243.615326 785.674194,254.068420 772.980042,264.280029 
	C770.366638,266.382355 766.898743,267.386719 764.060303,269.255005 
	C761.233582,271.115631 758.053955,272.980194 756.214111,275.657410 
	C754.109741,278.719452 753.142944,282.625305 751.980164,286.259979 
	C749.288696,294.673218 753.506409,302.472168 762.361328,302.925659 
	C775.080505,303.577087 788.049988,303.897705 800.611023,302.168671 
	C830.445374,298.061920 857.063477,285.698639 880.236755,266.521179 
	C895.733337,253.696716 908.965210,238.734360 917.625671,220.291763 
	C923.680237,207.398468 921.577942,195.446426 912.205078,188.727036 
	C904.519409,183.217163 895.995483,183.664749 887.925720,187.207275 
	C860.525574,199.235657 835.438843,215.240662 810.742798,233.247726 
z"/>
<path fill="#E98E04" opacity="1.000000" stroke="none" 
	d="
M273.380798,501.769287 
	C261.400330,500.027161 254.677887,493.252136 251.796906,482.077942 
	C244.865036,455.191711 241.290497,427.880127 240.972565,400.129852 
	C240.948196,398.001709 240.969391,395.873077 240.969391,392.458008 
	C233.306732,393.740204 226.326736,394.709106 219.431320,396.097992 
	C195.232788,400.972137 173.563278,411.187561 155.549896,428.183472 
	C139.835205,443.010498 129.320068,461.273438 123.288231,481.977112 
	C117.118675,503.153534 114.561234,524.721741 118.679222,546.621887 
	C123.597603,572.778625 139.158539,590.911316 162.462875,602.740784 
	C181.468597,612.388306 201.922775,616.731689 223.057678,617.895264 
	C232.173676,618.397095 241.335281,618.173096 250.475098,618.114075 
	C262.508209,618.036316 272.894409,627.588074 274.006500,640.218262 
	C274.531891,646.184570 274.712372,652.190613 274.820007,658.182800 
	C275.307800,685.336731 275.688904,712.492554 276.158630,739.646851 
	C276.449646,756.470215 276.921661,773.291077 277.103882,790.115295 
	C277.146515,794.052917 278.562714,795.418762 282.474457,796.195007 
	C315.501190,802.749634 348.870819,806.709290 382.425201,808.688843 
	C417.182007,810.739502 451.966614,810.864563 486.765625,808.219666 
	C523.720398,805.410950 560.127197,799.713074 595.887146,790.015930 
	C605.682373,787.359680 615.295288,784.038086 625.052368,781.232422 
	C643.765869,775.851501 660.729919,791.503113 656.007141,809.820862 
	C653.691895,818.800659 647.592590,824.317261 638.895996,827.133057 
	C606.845337,837.510193 574.198914,845.214722 540.848999,850.213074 
	C496.567108,856.849854 452.052124,858.873474 407.386719,857.764526 
	C370.092346,856.838684 332.962524,853.536621 296.158264,847.226257 
	C281.573303,844.725586 267.013336,842.032104 252.526016,839.022095 
	C236.911667,835.778015 230.251038,827.172302 229.981216,811.357910 
	C229.316177,772.381531 228.553085,733.406799 227.788025,694.432190 
	C227.631180,686.441650 227.199265,678.456055 227.086349,670.465454 
	C227.041748,667.309570 225.886551,666.076233 222.659622,665.990601 
	C200.020828,665.390015 177.941071,661.283203 156.635361,653.789856 
	C129.022034,644.078003 105.077324,629.012634 88.503593,604.013000 
	C78.175957,588.434937 72.083687,571.216553 70.132339,552.778931 
	C65.623352,510.175262 72.263901,469.398102 92.521767,431.374847 
	C106.909782,404.369110 128.035919,383.787811 154.867126,369.090393 
	C179.330673,355.689850 205.625107,348.407867 233.303268,345.882996 
	C245.202835,344.797485 245.100037,344.859009 248.007401,333.100037 
	C256.647583,298.154633 272.978485,267.502136 299.764557,243.077866 
	C321.040924,223.677521 345.862091,209.895157 372.415527,199.028748 
	C398.955750,188.167770 426.512024,181.239624 454.968750,178.368073 
	C477.059601,176.138901 499.165314,176.899002 521.178040,180.521133 
	C571.471497,188.796753 613.388855,212.282425 647.181763,250.107849 
	C670.099609,275.760468 686.010071,305.689972 697.867310,337.847076 
	C699.307556,341.752899 700.926758,345.616913 702.011902,349.622467 
	C703.044739,353.434784 705.189209,354.401184 708.950073,354.270813 
	C724.590942,353.728607 740.272339,352.678406 755.882629,353.277771 
	C788.753723,354.539917 820.215820,361.828766 848.758789,378.943176 
	C877.529419,396.194153 897.874268,420.836273 909.340210,452.199127 
	C929.254944,506.671906 927.145691,560.589478 900.892212,612.468445 
	C875.106018,663.424072 832.779358,692.293335 776.286194,699.928406 
	C763.645569,701.636780 750.738831,701.507385 737.944580,701.860474 
	C734.437378,701.957214 732.900574,702.478149 732.800903,706.407715 
	C732.285828,726.717041 731.522583,747.020325 730.796448,767.323975 
	C730.470459,776.439331 729.546082,785.288574 721.668274,791.682617 
	C714.019836,797.890381 705.509888,798.921143 696.843689,795.193665 
	C688.293152,791.515991 682.827515,784.587769 682.974243,774.971497 
	C683.286804,754.494812 684.213928,734.027832 684.854553,713.555725 
	C684.953186,710.403259 684.868225,707.245056 684.868225,703.220337 
	C683.031250,704.402954 681.680237,705.188110 680.418823,706.097656 
	C662.002930,719.375061 641.959229,729.300537 620.060059,735.386963 
	C595.086304,742.327881 569.687866,744.136536 543.873230,742.230103 
	C498.019379,738.843689 455.329529,724.322571 413.753021,705.814331 
	C404.076324,701.506653 398.685913,693.950867 398.941284,683.028687 
	C399.181030,672.776184 404.410736,665.789124 413.609375,661.722046 
	C421.005463,658.451965 428.275726,659.755371 435.365479,662.932983 
	C457.143097,672.693604 479.506134,680.827393 502.747101,686.296387 
	C536.948730,694.344666 571.214722,695.960266 605.435486,686.205139 
	C628.118958,679.738892 647.947937,668.217041 665.334839,652.377930 
	C698.360413,622.292358 717.038879,583.945251 728.898132,541.713989 
	C730.604675,535.636902 731.836060,529.421082 733.151123,523.240417 
	C736.025757,509.729218 748.075378,501.649139 761.916199,504.040955 
	C774.112549,506.148590 782.408386,518.575562 780.066650,531.908264 
	C775.167175,559.802673 766.088501,586.411926 753.821106,611.853882 
	C747.907043,624.119385 740.659790,635.741577 734.035583,647.665833 
	C733.175415,649.214172 732.431885,650.827332 731.474060,652.728699 
	C732.881226,653.237366 733.748291,653.781189 734.648254,653.842590 
	C758.026489,655.437073 780.968140,653.654236 802.736267,644.160217 
	C829.100708,632.661682 848.086792,613.337158 860.081360,587.485352 
	C877.476685,549.993286 879.335693,511.348755 865.888855,472.277405 
	C855.290466,441.482544 833.857300,420.966888 803.431213,409.955109 
	C780.086670,401.506287 755.805237,398.924683 731.154297,400.802521 
	C717.244873,401.862122 703.449158,404.351501 689.550293,405.633789 
	C678.354187,406.666748 667.150879,401.030365 663.259583,386.606567 
	C656.815735,362.720978 648.643982,339.509857 636.484741,317.907349 
	C607.385010,266.208069 564.811035,233.507996 504.742340,226.889404 
	C450.873932,220.953979 400.807465,233.414001 354.661285,261.307312 
	C316.896301,284.134521 296.925751,318.700775 290.871643,361.876617 
	C285.663574,399.018677 289.081879,435.508057 298.482178,471.683899 
	C303.267883,490.100983 287.362305,503.219269 273.380798,501.769287 
z"/>
<path fill="#E98E03" opacity="1.000000" stroke="none" 
	d="
M1200.743286,701.523621 
	C1197.919678,702.614014 1197.217773,703.906555 1198.652832,706.563782 
	C1214.623901,736.138367 1203.989258,773.141724 1179.808960,795.005737 
	C1156.588501,816.001831 1129.579712,826.976746 1098.392212,825.731262 
	C1075.080078,824.800354 1054.379517,816.758240 1039.948486,797.053589 
	C1032.155884,786.413208 1028.238525,774.278320 1028.001099,761.112915 
	C1027.527954,734.900940 1030.637451,708.934631 1034.243774,683.057007 
	C1038.627808,651.599854 1043.500488,620.209778 1048.324951,588.815735 
	C1050.233276,576.397827 1057.368896,569.599609 1071.234619,566.518127 
	C1080.598755,564.437134 1089.956543,562.235779 1099.415161,560.686768 
	C1142.148682,553.688171 1181.412476,562.020325 1215.306152,589.554504 
	C1233.239990,604.123474 1243.349487,623.480591 1243.145142,647.361511 
	C1243.044312,659.132690 1238.305542,669.107300 1231.222290,677.949829 
	C1223.096924,688.093201 1212.661377,695.551636 1200.743286,701.523621 
M1158.687622,657.183838 
	C1165.116211,654.465210 1171.709351,652.074280 1177.934814,648.950867 
	C1187.153320,644.325806 1187.455933,639.334900 1179.335327,633.055359 
	C1178.416992,632.345215 1177.456055,631.638367 1176.411621,631.151428 
	C1168.294067,627.366699 1160.256104,623.384399 1151.993286,619.944214 
	C1137.073242,613.732178 1121.705566,612.992249 1106.072632,617.048645 
	C1102.866089,617.880737 1101.206665,619.316833 1100.815308,623.076477 
	C1099.491699,635.794312 1097.614014,648.454224 1095.959473,661.137817 
	C1095.182495,667.093506 1095.194824,667.035767 1101.247437,667.116150 
	C1120.746338,667.375183 1139.668213,664.292480 1158.687622,657.183838 
M1128.770874,762.323059 
	C1134.252563,757.607544 1140.266479,753.374023 1145.083740,748.056641 
	C1151.354004,741.135742 1149.250366,733.463196 1140.728516,729.481812 
	C1138.340576,728.366150 1135.766968,727.295532 1133.187500,727.000183 
	C1118.401001,725.307251 1103.587158,723.854065 1087.730835,722.210510 
	C1086.531982,734.836609 1085.065918,747.309265 1084.291626,759.824768 
	C1083.960083,765.184204 1088.102173,768.379761 1092.822510,769.561646 
	C1096.740723,770.542725 1101.231201,771.128601 1105.055786,770.196716 
	C1112.889038,768.287903 1120.445312,765.242371 1128.770874,762.323059 
z"/>
<path fill="#E98E03" opacity="1.000000" stroke="none" 
	d="
M1311.733643,591.724304 
	C1328.551025,571.144287 1349.997192,559.502441 1375.876587,556.160522 
	C1401.021484,552.913452 1424.740112,557.687500 1446.266968,571.085266 
	C1470.527832,586.184631 1483.007446,609.163635 1486.805786,636.866638 
	C1491.887329,673.929443 1489.985718,710.481812 1473.699341,744.869995 
	C1456.191162,781.838196 1428.446411,807.137634 1387.339844,815.222534 
	C1352.761719,822.023315 1321.822998,807.709106 1302.627319,777.692261 
	C1288.269287,755.240234 1282.199829,730.496216 1281.190308,704.338318 
	C1280.114868,676.478333 1283.544312,649.164978 1293.607422,622.965088 
	C1297.924438,611.725281 1303.484619,601.130920 1311.733643,591.724304 
M1338.973633,685.598755 
	C1338.460815,699.283447 1338.684326,712.927856 1341.988037,726.314148 
	C1344.443237,736.262451 1347.474731,746.156189 1355.923950,752.775085 
	C1367.504395,761.846802 1380.351562,761.233582 1392.616455,754.810181 
	C1409.266235,746.090332 1418.859863,731.134644 1425.044067,713.917603 
	C1432.345459,693.590393 1433.322510,672.556213 1430.670898,651.328003 
	C1429.053589,638.379578 1424.416382,626.801758 1413.096802,619.005920 
	C1391.116699,603.868042 1359.396240,614.135681 1348.724976,639.950134 
	C1342.818359,654.238953 1339.969604,669.242920 1338.973633,685.598755 
z"/>
<path fill="#E98E03" opacity="1.000000" stroke="none" 
	d="
M1264.404785,244.374268 
	C1297.820801,220.094345 1333.602173,217.425186 1370.646362,232.754623 
	C1399.704712,244.779404 1416.967285,267.561859 1422.678711,298.330231 
	C1428.874634,331.708435 1428.023315,365.056976 1417.126587,397.467224 
	C1404.951416,433.679626 1382.608521,461.716675 1346.802979,476.815491 
	C1316.121338,489.753601 1285.822388,489.259125 1258.725830,467.504028 
	C1241.623657,453.773071 1230.995239,435.145386 1225.167725,414.202454 
	C1212.864014,369.987091 1216.386230,326.541321 1233.635376,284.210693 
	C1240.109619,268.322693 1251.225830,255.697861 1264.404785,244.374268 
M1363.115234,302.485626 
	C1358.519287,293.098785 1351.443970,286.329407 1341.599976,282.750519 
	C1319.197144,274.605652 1293.214966,286.689362 1285.417358,309.923523 
	C1281.222046,322.424194 1278.134766,335.564484 1276.673706,348.653534 
	C1274.370728,369.284393 1275.453613,389.924133 1284.254517,409.350647 
	C1290.830566,423.866089 1305.740234,430.562531 1321.089111,426.442719 
	C1337.892822,421.932465 1348.049683,409.851379 1356.037842,395.672485 
	C1367.802368,374.790527 1370.308472,351.856232 1368.567383,328.450623 
	C1367.934692,319.945404 1365.206421,311.596069 1363.115234,302.485626 
z"/>
<path fill="#E98E03" opacity="1.000000" stroke="none" 
	d="
M1629.707397,239.272095 
	C1653.099365,254.519791 1665.753052,276.290649 1669.848755,303.055878 
	C1675.060059,337.111298 1673.768677,370.889221 1661.241943,403.358734 
	C1647.406494,439.220184 1623.678955,466.172791 1586.728149,479.259308 
	C1557.021973,489.780029 1528.493774,487.380432 1503.567749,466.410492 
	C1487.165527,452.611572 1477.525391,434.149445 1471.233521,413.951385 
	C1463.884399,390.359436 1463.442871,366.143616 1465.549194,341.772095 
	C1467.310913,321.388306 1471.543579,301.549805 1480.518311,283.078125 
	C1497.926758,247.247971 1526.163330,226.700592 1566.392578,223.865799 
	C1588.961670,222.275467 1609.983276,227.452057 1629.707397,239.272095 
M1613.917114,318.778381 
	C1612.106445,307.138062 1608.385254,296.309357 1598.661133,288.880463 
	C1576.790405,272.172058 1543.674438,281.041412 1532.919800,306.596497 
	C1521.573486,333.557800 1519.454224,361.582703 1524.501465,390.271423 
	C1526.195312,399.898407 1528.973389,409.214966 1535.153076,416.869781 
	C1545.553589,429.752960 1565.532837,431.430420 1580.426758,420.773315 
	C1596.725464,409.111023 1605.927979,392.651398 1611.071289,373.646606 
	C1615.884521,355.861084 1615.924194,337.815643 1613.917114,318.778381 
z"/>
<path fill="#E98E03" opacity="1.000000" stroke="none" 
	d="
M1757.616577,478.684998 
	C1743.367554,488.367249 1727.759521,487.414368 1717.906860,476.271790 
	C1711.225464,468.715546 1710.286377,459.478241 1711.223389,449.949982 
	C1714.462158,417.017120 1718.427734,384.141632 1720.923950,351.154022 
	C1723.183350,321.298370 1723.937622,291.326996 1725.237671,261.401520 
	C1725.663940,251.589142 1725.782349,241.761658 1725.933105,231.939438 
	C1726.161499,217.069504 1736.968018,205.795715 1751.920044,204.946045 
	C1771.031616,203.860001 1783.176392,215.101440 1782.902222,234.286438 
	C1782.602539,255.262650 1781.765991,276.231110 1781.183228,297.203461 
	C1781.115967,299.622284 1781.174316,302.044586 1781.174316,306.184479 
	C1785.422607,302.825806 1788.641235,300.617523 1791.468750,297.988739 
	C1805.417969,285.020325 1815.430298,269.092804 1825.033569,252.874268 
	C1827.578369,248.576508 1830.085938,244.256607 1832.654297,239.973053 
	C1839.761353,228.119812 1851.043213,223.577362 1864.255005,227.749405 
	C1880.166870,232.774109 1892.263306,249.579514 1881.930420,268.110199 
	C1867.864380,293.336029 1852.274902,317.543884 1830.878784,337.360413 
	C1827.450562,340.535614 1828.728149,342.507965 1830.904053,345.170013 
	C1850.116699,368.675140 1861.568359,395.664459 1866.481934,425.475281 
	C1867.582642,432.152527 1868.689941,439.074310 1868.103149,445.734497 
	C1866.752441,461.064148 1853.820679,467.646423 1840.718262,466.581299 
	C1822.340942,465.087341 1812.935059,454.692871 1810.867432,436.369202 
	C1808.039917,411.313843 1797.297607,389.961731 1779.589478,372.075165 
	C1779.040039,371.520142 1778.362427,371.092163 1777.009644,370.025452 
	C1776.312378,376.132172 1775.691406,381.497589 1775.088379,386.864990 
	C1772.526001,409.669067 1769.973022,432.474213 1767.403564,455.277496 
	C1767.105713,457.920990 1766.674683,460.549896 1766.395630,463.195068 
	C1765.730591,469.501007 1762.839722,474.544983 1757.616577,478.684998 
z"/>
<path fill="#E98E04" opacity="1.000000" stroke="none" 
	d="
M1877.261719,696.759766 
	C1890.397339,713.523071 1897.965576,732.009155 1897.970581,753.166382 
	C1897.977173,780.723999 1887.101562,803.221680 1864.478516,818.901794 
	C1833.183838,840.592041 1799.667114,844.100342 1764.758789,827.814453 
	C1755.450684,823.471924 1747.634033,816.982849 1740.844849,809.251709 
	C1734.047852,801.511658 1729.098511,793.057434 1733.129639,782.486694 
	C1737.484985,771.065857 1746.883545,765.730164 1758.485474,764.111633 
	C1768.094971,762.770996 1777.322510,764.880371 1783.475586,772.479736 
	C1790.031494,780.576538 1798.253174,781.344116 1807.218384,780.717651 
	C1812.170776,780.371582 1817.132812,779.446411 1821.968262,778.276855 
	C1837.540039,774.510498 1844.592407,760.305359 1839.908203,744.390076 
	C1836.223755,731.871399 1826.381104,725.116028 1815.965454,718.818726 
	C1804.741943,712.032959 1792.775391,706.094055 1782.708374,697.859680 
	C1763.736084,682.341064 1756.297119,661.542175 1760.581299,637.223938 
	C1765.363647,610.077393 1781.276123,590.114929 1802.895142,574.173279 
	C1810.965210,568.222534 1819.474731,563.048035 1829.674072,561.445679 
	C1848.577026,558.476013 1867.383179,579.710388 1862.155762,598.096191 
	C1860.137939,605.193298 1855.420532,609.735474 1849.052490,612.962097 
	C1839.554443,617.774475 1830.008545,622.468750 1822.590820,630.505127 
	C1812.565918,641.366455 1813.775635,653.165100 1826.400513,661.075867 
	C1832.435303,664.857300 1839.036011,667.738708 1845.396606,670.996216 
	C1857.710693,677.302673 1868.400513,685.615845 1877.261719,696.759766 
z"/>
<path fill="#E98E03" opacity="1.000000" stroke="none" 
	d="
M1596.285278,780.816956 
	C1602.853882,780.214966 1609.052246,780.051819 1615.068604,778.920898 
	C1632.752319,775.596558 1641.202271,760.203125 1635.276489,743.156616 
	C1631.763794,733.051941 1624.228149,726.673584 1615.673340,721.307007 
	C1603.986938,713.975952 1591.420288,707.886047 1580.396484,699.695190 
	C1558.766846,683.624207 1550.228027,657.001892 1557.534546,631.121521 
	C1566.480347,599.434265 1587.318237,577.812012 1616.522095,563.911316 
	C1628.116943,558.392334 1639.184814,560.975647 1648.405762,569.531677 
	C1656.401978,576.951355 1660.354248,586.282654 1657.915283,597.443604 
	C1656.303589,604.819641 1651.224731,609.280518 1644.930054,613.006348 
	C1636.100098,618.233032 1627.085449,623.383240 1619.177246,629.827332 
	C1615.486938,632.834534 1613.096191,638.571655 1612.080811,643.478027 
	C1610.252075,652.313782 1616.304932,657.677612 1623.066284,661.894958 
	C1627.004883,664.351746 1631.169434,666.538635 1635.441528,668.354309 
	C1670.364380,683.195618 1694.481812,718.157471 1693.677002,754.770752 
	C1692.928101,788.833252 1675.818481,813.012024 1645.522827,827.641724 
	C1618.237549,840.817688 1590.311523,841.509155 1562.525757,828.888123 
	C1549.547241,822.992981 1538.863159,814.013489 1531.005981,802.045471 
	C1523.624023,790.801392 1527.880493,776.298889 1540.076050,768.962524 
	C1553.253784,761.035339 1571.949585,761.835144 1581.533936,775.014648 
	C1585.076904,779.886536 1590.531616,780.195068 1596.285278,780.816956 
z"/>
<path fill="#E98E03" opacity="1.000000" stroke="none" 
	d="
M1032.258789,293.268066 
	C1052.328369,271.452942 1076.138916,256.550293 1105.021729,250.700577 
	C1116.911743,248.292465 1129.101562,247.131729 1141.189331,249.712112 
	C1152.600952,252.148163 1161.641113,262.100098 1162.868896,273.708771 
	C1163.352905,278.284882 1163.391113,283.146790 1162.383179,287.595520 
	C1159.781860,299.076843 1150.771606,305.566071 1138.753906,306.004211 
	C1130.811279,306.293732 1122.704834,306.288422 1114.990112,307.920105 
	C1079.282593,315.472412 1052.263672,349.109589 1051.996216,385.601013 
	C1051.873413,402.353149 1061.569580,415.280670 1077.787109,420.028717 
	C1093.500977,424.629303 1109.401489,423.863190 1125.288940,421.421021 
	C1132.012329,420.387512 1138.641357,418.684174 1145.272095,417.111969 
	C1162.981445,412.912903 1178.335693,423.887970 1179.959839,441.992676 
	C1181.223877,456.080811 1174.896118,467.485413 1161.417358,471.535553 
	C1132.355225,480.268066 1102.758789,485.474243 1072.380615,478.932495 
	C1043.938354,472.807678 1021.515686,457.790833 1007.052002,432.249268 
	C994.338013,409.797638 992.233093,385.542328 997.406372,360.614075 
	C1002.700806,335.102386 1014.635315,312.871063 1032.258789,293.268066 
z"/>
<path fill="#E88F06" opacity="1.000000" stroke="none" 
	d="
M771.206848,11.931139 
	C782.973450,11.172212 792.891113,14.233746 800.197876,23.224554 
	C808.132202,32.987583 808.225647,44.209633 802.871826,54.706150 
	C796.162903,67.859688 788.148193,80.368317 780.358276,92.945442 
	C757.230042,130.286804 733.836548,167.464096 710.781372,204.850189 
	C705.530151,213.365372 697.166626,214.496902 688.846985,214.877289 
	C680.845947,215.243103 678.036011,208.527039 676.394531,202.072052 
	C674.571411,194.902863 674.449402,187.641418 677.356140,180.511963 
	C696.014343,134.748459 714.361145,88.856033 733.339539,43.226124 
	C739.527954,28.347244 749.273438,16.249557 766.299744,12.514864 
	C767.752136,12.196287 769.258728,12.124804 771.206848,11.931139 
M753.745972,87.265099 
	C755.249878,84.869324 756.778564,82.488693 758.253540,80.075241 
	C765.278992,68.579033 772.502808,57.196259 779.210693,45.517284 
	C782.289429,40.157051 779.554138,36.525177 773.318909,37.238064 
	C770.966553,37.507011 768.124451,38.368683 766.596802,39.989021 
	C763.110657,43.686558 759.377808,47.614357 757.374573,52.165764 
	C749.464294,70.138092 742.149536,88.373489 734.682007,106.539314 
	C731.107361,115.235031 727.684998,123.993355 724.193665,132.723312 
	C724.522888,132.882919 724.852112,133.042526 725.181335,133.202133 
	C734.565125,118.089119 743.948914,102.976105 753.745972,87.265099 
z"/>
<path fill="#E88F06" opacity="1.000000" stroke="none" 
	d="
M725.091370,256.299011 
	C717.359497,253.462448 716.403137,247.135864 716.338257,240.662323 
	C716.261353,232.982971 718.579163,225.911285 723.201355,219.677338 
	C735.582703,202.978699 747.533020,185.938629 760.442444,169.658859 
	C777.628235,147.986191 796.337402,127.602753 817.066345,109.236908 
	C824.724854,102.451477 833.542542,97.593063 844.529541,97.845703 
	C862.342590,98.255302 874.644104,112.974159 871.192383,130.499893 
	C868.672913,143.292755 860.637695,152.332916 850.915283,160.422501 
	C825.726624,181.380661 800.766907,202.613968 775.684448,223.700058 
	C763.838074,233.658936 751.963013,243.584763 740.010803,253.415970 
	C735.774414,256.900604 730.829651,257.930206 725.091370,256.299011 
M781.647705,184.789215 
	C786.498596,180.805008 791.413147,176.895416 796.188599,172.822800 
	C811.481262,159.780930 826.771362,146.734695 841.917664,133.524170 
	C843.682007,131.985321 845.026184,129.553650 845.705139,127.279160 
	C846.690613,123.977516 844.792725,122.289337 841.626099,123.601654 
	C838.920227,124.722969 836.207886,126.349495 834.137634,128.398438 
	C821.263306,141.140228 808.412720,153.914337 795.888428,166.997635 
	C790.522095,172.603455 785.959045,178.978180 780.784058,185.303009 
	C780.544678,185.484131 780.305237,185.665253 780.649902,185.404526 
	C780.462463,185.652451 780.724487,185.305771 781.647705,184.789215 
z"/>
<path fill="#E88F06" opacity="1.000000" stroke="none" 
	d="
M811.043762,233.056641 
	C835.438843,215.240662 860.525574,199.235657 887.925720,187.207275 
	C895.995483,183.664749 904.519409,183.217163 912.205078,188.727036 
	C921.577942,195.446426 923.680237,207.398468 917.625671,220.291763 
	C908.965210,238.734360 895.733337,253.696716 880.236755,266.521179 
	C857.063477,285.698639 830.445374,298.061920 800.611023,302.168671 
	C788.049988,303.897705 775.080505,303.577087 762.361328,302.925659 
	C753.506409,302.472168 749.288696,294.673218 751.980164,286.259979 
	C753.142944,282.625305 754.109741,278.719452 756.214111,275.657410 
	C758.053955,272.980194 761.233582,271.115631 764.060303,269.255005 
	C766.898743,267.386719 770.366638,266.382355 772.980042,264.280029 
	C785.674194,254.068420 798.174072,243.615326 811.043762,233.056641 
M891.271484,214.037430 
	C889.726257,214.621643 888.096130,215.045731 886.648438,215.813782 
	C860.572021,229.648529 835.730713,245.391205 812.703247,263.913208 
	C808.245056,267.499084 803.873230,271.192352 799.461548,274.836090 
	C799.673401,275.224213 799.885193,275.612335 800.096985,276.000458 
	C801.997437,275.758850 803.933899,275.674988 805.792725,275.250946 
	C822.327393,271.479095 837.857605,265.310303 851.895203,255.659515 
	C868.103210,244.516586 882.243713,231.376083 892.080444,213.894806 
	C892.080444,213.894806 892.107849,213.798935 892.107849,213.798935 
	C892.107849,213.798935 892.023254,214.044861 891.271484,214.037430 
z"/>
<path fill="#FDE78C" opacity="1.000000" stroke="none" 
	d="
M1158.321777,657.322632 
	C1139.668213,664.292480 1120.746338,667.375183 1101.247437,667.116150 
	C1095.194824,667.035767 1095.182495,667.093506 1095.959473,661.137817 
	C1097.614014,648.454224 1099.491699,635.794312 1100.815308,623.076477 
	C1101.206665,619.316833 1102.866089,617.880737 1106.072632,617.048645 
	C1121.705566,612.992249 1137.073242,613.732178 1151.993286,619.944214 
	C1160.256104,623.384399 1168.294067,627.366699 1176.411621,631.151428 
	C1177.456055,631.638367 1178.416992,632.345215 1179.335327,633.055359 
	C1187.455933,639.334900 1187.153320,644.325806 1177.934814,648.950867 
	C1171.709351,652.074280 1165.116211,654.465210 1158.321777,657.322632 
z"/>
<path fill="#FDE78C" opacity="1.000000" stroke="none" 
	d="
M1128.443359,762.494019 
	C1120.445312,765.242371 1112.889038,768.287903 1105.055786,770.196716 
	C1101.231201,771.128601 1096.740723,770.542725 1092.822510,769.561646 
	C1088.102173,768.379761 1083.960083,765.184204 1084.291626,759.824768 
	C1085.065918,747.309265 1086.531982,734.836609 1087.730835,722.210510 
	C1103.587158,723.854065 1118.401001,725.307251 1133.187500,727.000183 
	C1135.766968,727.295532 1138.340576,728.366150 1140.728516,729.481812 
	C1149.250366,733.463196 1151.354004,741.135742 1145.083740,748.056641 
	C1140.266479,753.374023 1134.252563,757.607544 1128.443359,762.494019 
z"/>
<path fill="#FEE88E" opacity="1.000000" stroke="none" 
	d="
M1338.985107,685.114868 
	C1339.969604,669.242920 1342.818359,654.238953 1348.724976,639.950134 
	C1359.396240,614.135681 1391.116699,603.868042 1413.096802,619.005920 
	C1424.416382,626.801758 1429.053589,638.379578 1430.670898,651.328003 
	C1433.322510,672.556213 1432.345459,693.590393 1425.044067,713.917603 
	C1418.859863,731.134644 1409.266235,746.090332 1392.616455,754.810181 
	C1380.351562,761.233582 1367.504395,761.846802 1355.923950,752.775085 
	C1347.474731,746.156189 1344.443237,736.262451 1341.988037,726.314148 
	C1338.684326,712.927856 1338.460815,699.283447 1338.985107,685.114868 
z"/>
<path fill="#FEE88E" opacity="1.000000" stroke="none" 
	d="
M1363.274902,302.830627 
	C1365.206421,311.596069 1367.934692,319.945404 1368.567383,328.450623 
	C1370.308472,351.856232 1367.802368,374.790527 1356.037842,395.672485 
	C1348.049683,409.851379 1337.892822,421.932465 1321.089111,426.442719 
	C1305.740234,430.562531 1290.830566,423.866089 1284.254517,409.350647 
	C1275.453613,389.924133 1274.370728,369.284393 1276.673706,348.653534 
	C1278.134766,335.564484 1281.222046,322.424194 1285.417358,309.923523 
	C1293.214966,286.689362 1319.197144,274.605652 1341.599976,282.750519 
	C1351.443970,286.329407 1358.519287,293.098785 1363.274902,302.830627 
z"/>
<path fill="#FEE88E" opacity="1.000000" stroke="none" 
	d="
M1613.940674,319.221680 
	C1615.924194,337.815643 1615.884521,355.861084 1611.071289,373.646606 
	C1605.927979,392.651398 1596.725464,409.111023 1580.426758,420.773315 
	C1565.532837,431.430420 1545.553589,429.752960 1535.153076,416.869781 
	C1528.973389,409.214966 1526.195312,399.898407 1524.501465,390.271423 
	C1519.454224,361.582703 1521.573486,333.557800 1532.919800,306.596497 
	C1543.674438,281.041412 1576.790405,272.172058 1598.661133,288.880463 
	C1608.385254,296.309357 1612.106445,307.138062 1613.940674,319.221680 
z"/>
<path fill="#FDE484" opacity="1.000000" stroke="none" 
	d="
M753.539307,87.564095 
	C743.948914,102.976105 734.565125,118.089119 725.181335,133.202133 
	C724.852112,133.042526 724.522888,132.882919 724.193665,132.723312 
	C727.684998,123.993355 731.107361,115.235031 734.682007,106.539314 
	C742.149536,88.373489 749.464294,70.138092 757.374573,52.165764 
	C759.377808,47.614357 763.110657,43.686558 766.596802,39.989021 
	C768.124451,38.368683 770.966553,37.507011 773.318909,37.238064 
	C779.554138,36.525177 782.289429,40.157051 779.210693,45.517284 
	C772.502808,57.196259 765.278992,68.579033 758.253540,80.075241 
	C756.778564,82.488693 755.249878,84.869324 753.539307,87.564095 
z"/>
<path fill="#FDE484" opacity="1.000000" stroke="none" 
	d="
M781.031067,185.003540 
	C785.959045,178.978180 790.522095,172.603455 795.888428,166.997635 
	C808.412720,153.914337 821.263306,141.140228 834.137634,128.398438 
	C836.207886,126.349495 838.920227,124.722969 841.626099,123.601654 
	C844.792725,122.289337 846.690613,123.977516 845.705139,127.279160 
	C845.026184,129.553650 843.682007,131.985321 841.917664,133.524170 
	C826.771362,146.734695 811.481262,159.780930 796.188599,172.822800 
	C791.413147,176.895416 786.498596,180.805008 781.324341,184.889435 
	C781.001038,184.989639 781.031067,185.003555 781.031067,185.003540 
z"/>
<path fill="#FDE484" opacity="1.000000" stroke="none" 
	d="
M780.993774,184.974365 
	C780.724487,185.305771 780.462463,185.652451 780.649902,185.404526 
	C780.305237,185.665253 780.544678,185.484131 780.907593,185.153290 
	C781.031067,185.003555 781.001038,184.989639 780.993774,184.974365 
z"/>
<path fill="#FDE484" opacity="1.000000" stroke="none" 
	d="
M891.976990,213.999619 
	C882.243713,231.376083 868.103210,244.516586 851.895203,255.659515 
	C837.857605,265.310303 822.327393,271.479095 805.792725,275.250946 
	C803.933899,275.674988 801.997437,275.758850 800.096985,276.000458 
	C799.885193,275.612335 799.673401,275.224213 799.461548,274.836090 
	C803.873230,271.192352 808.245056,267.499084 812.703247,263.913208 
	C835.730713,245.391205 860.572021,229.648529 886.648438,215.813782 
	C888.096130,215.045731 889.726257,214.621643 891.638733,214.026245 
	C892.005981,214.015060 891.976990,213.999619 891.976990,213.999619 
z"/>
<path fill="#FDE484" opacity="1.000000" stroke="none" 
	d="
M892.014648,214.029968 
	C892.023254,214.044861 892.107849,213.798935 892.107849,213.798935 
	C892.107849,213.798935 892.080444,213.894806 892.028687,213.947205 
	C891.976990,213.999619 892.005981,214.015060 892.014648,214.029968 
z"/>
</svg>