<svg xmlns="http://www.w3.org/2000/svg" xmlns:xlink="http://www.w3.org/1999/xlink" width="1920" zoomAndPan="magnify" viewBox="0 0 1440 809.999993" height="1080" preserveAspectRatio="xMidYMid meet" version="1.0"><defs><g/><clipPath id="aa9472adf6"><path d="M 677 9 L 757 9 L 757 132 L 677 132 Z M 677 9 " clip-rule="nonzero"/></clipPath><clipPath id="d1e75cbc4a"><path d="M 727.59375 0 L 858.140625 72.808594 L 779.777344 213.316406 L 649.230469 140.507812 Z M 727.59375 0 " clip-rule="nonzero"/></clipPath><clipPath id="759282a180"><path d="M 727.59375 0 L 858.140625 72.808594 L 779.777344 213.316406 L 649.230469 140.507812 Z M 727.59375 0 " clip-rule="nonzero"/></clipPath><clipPath id="a58f9e491e"><path d="M 702 61 L 796 61 L 796 157 L 702 157 Z M 702 61 " clip-rule="nonzero"/></clipPath><clipPath id="cffe41bdd2"><path d="M 727.59375 0 L 858.140625 72.808594 L 779.777344 213.316406 L 649.230469 140.507812 Z M 727.59375 0 " clip-rule="nonzero"/></clipPath><clipPath id="604202294a"><path d="M 727.59375 0 L 858.140625 72.808594 L 779.777344 213.316406 L 649.230469 140.507812 Z M 727.59375 0 " clip-rule="nonzero"/></clipPath><clipPath id="6266b9df13"><path d="M 778 76 L 780 76 L 780 77 L 778 77 Z M 778 76 " clip-rule="nonzero"/></clipPath><clipPath id="71f24d6d09"><path d="M 727.59375 0 L 858.140625 72.808594 L 779.777344 213.316406 L 649.230469 140.507812 Z M 727.59375 0 " clip-rule="nonzero"/></clipPath><clipPath id="27324e09a6"><path d="M 727.59375 0 L 858.140625 72.808594 L 779.777344 213.316406 L 649.230469 140.507812 Z M 727.59375 0 " clip-rule="nonzero"/></clipPath><clipPath id="2bc689707f"><path d="M 780 76 L 781 76 L 781 78 L 780 78 Z M 780 76 " clip-rule="nonzero"/></clipPath><clipPath id="92e954f0a7"><path d="M 727.59375 0 L 858.140625 72.808594 L 779.777344 213.316406 L 649.230469 140.507812 Z M 727.59375 0 " clip-rule="nonzero"/></clipPath><clipPath id="c759c93984"><path d="M 727.59375 0 L 858.140625 72.808594 L 779.777344 213.316406 L 649.230469 140.507812 Z M 727.59375 0 " clip-rule="nonzero"/></clipPath><clipPath id="1e3a577714"><path d="M 723 113 L 826 113 L 826 185 L 723 185 Z M 723 113 " clip-rule="nonzero"/></clipPath><clipPath id="19fa46be85"><path d="M 727.59375 0 L 858.140625 72.808594 L 779.777344 213.316406 L 649.230469 140.507812 Z M 727.59375 0 " clip-rule="nonzero"/></clipPath><clipPath id="a59311c23f"><path d="M 727.59375 0 L 858.140625 72.808594 L 779.777344 213.316406 L 649.230469 140.507812 Z M 727.59375 0 " clip-rule="nonzero"/></clipPath><clipPath id="1bba7478ff"><path d="M 788 151 L 790 151 L 790 153 L 788 153 Z M 788 151 " clip-rule="nonzero"/></clipPath><clipPath id="0de3a40dfc"><path d="M 727.59375 0 L 858.140625 72.808594 L 779.777344 213.316406 L 649.230469 140.507812 Z M 727.59375 0 " clip-rule="nonzero"/></clipPath><clipPath id="3fc5403d73"><path d="M 727.59375 0 L 858.140625 72.808594 L 779.777344 213.316406 L 649.230469 140.507812 Z M 727.59375 0 " clip-rule="nonzero"/></clipPath><clipPath id="858ff06de2"><path d="M 0.679688 432 L 1162.28125 432 L 1162.28125 794.160156 L 0.679688 794.160156 Z M 0.679688 432 " clip-rule="nonzero"/></clipPath><clipPath id="3397f981d6"><rect x="0" width="1163" y="0" height="363"/></clipPath><clipPath id="37af05890d"><rect x="0" width="1163" y="0" height="795"/></clipPath></defs><rect x="-144" width="1728" fill="#ffffff" y="-80.999999" height="971.999992" fill-opacity="1"/><rect x="-144" width="1728" fill="#fff7d9" y="-80.999999" height="971.999992" fill-opacity="1"/><g transform="matrix(1, 0, 0, 1, 139, 0.000000000000039746)"><g clip-path="url(#37af05890d)"><path fill="#eb8d00" d="M 451.496094 285.046875 C 453.664062 292.664062 449.246094 300.617188 441.628906 302.78125 C 434.011719 304.949219 426.0625 300.53125 423.894531 292.898438 C 423.863281 292.765625 416.59375 268.511719 416.945312 237.945312 C 394.058594 239.960938 350.441406 251.246094 343.074219 307.53125 C 333.523438 380.402344 421.429688 373.269531 421.660156 373.269531 C 429.5625 372.738281 436.394531 378.71875 436.929688 386.621094 L 438.847656 479.425781 C 469.699219 485.578125 562.46875 499.894531 647.527344 470.976562 C 655.027344 468.441406 663.175781 472.460938 665.710938 479.960938 C 668.242188 487.460938 664.226562 495.59375 656.726562 498.144531 C 544.984375 536.128906 421.695312 505.027344 421.34375 504.945312 C 415.210938 503.410156 410.59375 497.929688 410.460938 491.3125 L 408.59375 402.023438 C 376.242188 400.707031 303.585938 388.4375 314.671875 303.847656 C 325.304688 222.675781 391.078125 210.476562 419.746094 209.058594 C 423.460938 189.726562 431.394531 170.039062 446.597656 153.707031 C 461.929688 137.222656 488.414062 121.921875 518.652344 114.152344 C 539.9375 108.6875 563.238281 106.820312 585.988281 110.753906 C 609.273438 114.769531 632.007812 124.769531 651.558594 142.957031 C 669.476562 159.625 684.578125 183.125 694.679688 215.160156 C 721.996094 211.875 784.132812 210.644531 812.234375 261.03125 C 824.519531 283.082031 828.570312 311.066406 823.871094 337.433594 C 821.238281 352.136719 815.886719 366.4375 807.734375 378.988281 C 799.433594 391.789062 788.21875 402.820312 774.035156 410.722656 C 757.367188 420.023438 736.765625 424.90625 712.179688 423.140625 L 710.597656 466.777344 C 710.3125 474.675781 703.679688 480.859375 695.777344 480.578125 C 687.878906 480.292969 681.695312 473.660156 681.976562 465.757812 L 683.511719 423.523438 C 650.441406 449.542969 599.089844 461.257812 520.132812 425.457031 C 512.917969 422.207031 509.699219 413.707031 512.949219 406.488281 C 516.199219 399.273438 524.703125 396.054688 531.917969 399.304688 C 688.277344 470.191406 712.230469 316.765625 712.296875 316.332031 C 713.5625 308.515625 720.929688 303.214844 728.746094 304.5 C 736.566406 305.765625 741.863281 313.132812 740.597656 320.949219 C 740.546875 321.183594 734.515625 359.71875 710.628906 394.289062 C 730.882812 396.355469 747.316406 392.855469 760.117188 385.703125 C 769.984375 380.203125 777.835938 372.4375 783.71875 363.386719 C 789.75 354.101562 793.71875 343.433594 795.703125 332.382812 C 799.285156 312.367188 796.335938 291.316406 787.21875 274.964844 C 761.265625 228.425781 687.726562 245.34375 687.527344 245.394531 L 687.511719 245.34375 C 680.011719 246.996094 672.476562 242.410156 670.578125 234.910156 C 662.160156 202.191406 648.492188 179.273438 632.023438 163.957031 C 616.925781 149.921875 599.289062 142.1875 581.15625 139.054688 C 562.488281 135.820312 543.285156 137.371094 525.71875 141.890625 C 500.882812 148.273438 479.53125 160.390625 467.582031 173.242188 C 454.347656 187.457031 448.464844 205.558594 446.363281 223.027344 C 446.378906 223.511719 446.363281 224.011719 446.328125 224.511719 C 446.261719 225.3125 446.148438 226.09375 445.964844 226.84375 C 443.214844 257.328125 451.464844 284.914062 451.496094 285.046875 " fill-opacity="1" fill-rule="nonzero"/><g clip-path="url(#aa9472adf6)"><g clip-path="url(#d1e75cbc4a)"><g clip-path="url(#759282a180)"><path fill="#eb8d00" d="M 755.808594 21.996094 C 754.636719 17.867188 751.871094 14.648438 748.308594 12.328125 C 741.917969 8.175781 733.082031 8.480469 726.460938 11.867188 C 718.9375 15.75 714.355469 23.742188 711.21875 31.246094 C 707.773438 39.371094 704.570312 47.589844 701.273438 55.757812 C 693.714844 74.484375 686.109375 93.222656 678.554688 111.953125 C 677.875 113.621094 677.605469 115.527344 677.855469 117.257812 C 677.632812 120.730469 678.324219 124.296875 680.058594 127.570312 C 681.910156 131.15625 687.222656 132.441406 690.558594 130.285156 C 690.695312 130.191406 690.847656 130.070312 690.980469 129.976562 C 693.914062 130.273438 696.742188 128.878906 698.4375 126.140625 C 707.96875 110.855469 717.445312 95.589844 726.972656 80.304688 C 731.738281 72.664062 736.503906 65.023438 741.214844 57.394531 C 743.597656 53.574219 745.980469 49.753906 748.363281 45.933594 C 750.390625 42.667969 752.667969 39.417969 754.21875 35.886719 C 756.136719 31.472656 757.183594 26.738281 755.808594 21.996094 Z M 740.832031 25.65625 C 740.742188 25.523438 740.757812 25.492188 740.832031 25.65625 Z M 741.105469 26.144531 C 741.089844 26.09375 741.078125 26.046875 741.082031 25.964844 C 741.082031 25.964844 741.109375 26.0625 741.105469 26.144531 Z M 740.847656 25.707031 C 740.878906 25.726562 740.859375 25.757812 740.894531 25.773438 C 740.894531 25.773438 740.90625 25.824219 740.90625 25.824219 C 740.875 25.808594 740.859375 25.757812 740.847656 25.707031 Z M 741.230469 26.296875 C 741.292969 26.332031 741.339844 26.402344 741.371094 26.417969 C 741.339844 26.402344 741.292969 26.332031 741.230469 26.296875 Z M 740.242188 25.289062 C 740.117188 25.214844 740.148438 25.234375 740.242188 25.289062 Z M 735.375 24.707031 C 735.375 24.707031 735.34375 24.691406 735.34375 24.691406 C 735.324219 24.722656 735.324219 24.722656 735.375 24.707031 Z M 736.21875 24.550781 C 736.417969 24.492188 736.367188 24.507812 736.21875 24.550781 Z M 732.613281 26.054688 C 732.613281 26.054688 732.160156 26.347656 731.988281 26.503906 C 732.261719 26.238281 732.5 26.035156 732.613281 26.054688 Z M 728.484375 30.910156 C 728.679688 30.558594 728.90625 30.226562 729.136719 29.894531 C 729.171875 29.828125 729.328125 29.625 729.46875 29.367188 C 729.660156 29.097656 730.042969 28.640625 730.058594 28.609375 C 730.320312 28.292969 730.59375 28.027344 730.855469 27.710938 C 731.023438 27.554688 731.476562 26.96875 731.921875 26.546875 C 731.988281 26.503906 732.171875 26.394531 732.460938 26.179688 C 732.800781 25.949219 733.136719 25.71875 733.476562 25.488281 C 733.710938 25.367188 733.960938 25.21875 734.195312 25.097656 C 734.695312 24.957031 735.191406 24.8125 735.6875 24.671875 C 735.902344 24.667969 736.101562 24.609375 736.183594 24.613281 C 736.757812 24.558594 737.34375 24.632812 737.933594 24.625 C 738.191406 24.6875 738.46875 24.714844 738.726562 24.777344 C 738.988281 24.839844 739.226562 24.929688 739.488281 24.992188 C 739.839844 25.1875 740.207031 25.351562 740.558594 25.546875 C 740.589844 25.566406 740.605469 25.613281 740.636719 25.632812 C 740.714844 25.71875 740.839844 25.871094 740.929688 26.007812 C 740.960938 26.105469 741.003906 26.171875 741.003906 26.171875 C 741.019531 26.222656 741.046875 26.324219 741.0625 26.371094 C 741.0625 26.371094 741.074219 26.421875 741.074219 26.421875 C 741.078125 26.714844 741.082031 27.011719 741.082031 27.011719 C 741.066406 27.042969 741.097656 27.0625 741.097656 27.0625 C 741.019531 27.351562 740.921875 27.675781 740.921875 27.675781 C 740.839844 28.046875 740.710938 28.351562 740.628906 28.726562 C 740.609375 28.757812 740.609375 28.757812 740.609375 28.757812 C 740.59375 28.789062 740.574219 28.820312 740.558594 28.851562 C 737.019531 35.796875 732.503906 42.320312 728.390625 48.945312 C 723.960938 56.058594 719.53125 63.175781 715.082031 70.324219 C 711.941406 75.355469 708.835938 80.402344 705.710938 85.402344 C 707.460938 81.0625 709.230469 76.6875 710.980469 72.347656 C 714.117188 64.550781 717.28125 56.773438 720.417969 48.976562 C 721.890625 45.359375 723.296875 41.707031 724.851562 38.097656 C 725.546875 36.472656 726.273438 34.871094 727.097656 33.320312 C 727.5625 32.488281 728.007812 31.691406 728.484375 30.910156 Z M 728.484375 30.910156 " fill-opacity="1" fill-rule="nonzero"/></g></g></g><g clip-path="url(#a58f9e491e)"><g clip-path="url(#cffe41bdd2)"><g clip-path="url(#604202294a)"><path fill="#eb8d00" d="M 772 107.886719 C 774.976562 105.402344 777.921875 102.902344 780.898438 100.417969 C 783.804688 97.976562 786.894531 95.597656 789.410156 92.730469 C 795.035156 86.324219 797.929688 77.386719 793.804688 69.394531 C 789.769531 61.617188 779.792969 59.234375 771.980469 62.285156 C 764.480469 65.222656 758.761719 71.574219 753.171875 77.167969 C 747.722656 82.585938 742.445312 88.222656 737.371094 94.015625 C 726.535156 106.308594 716.519531 119.394531 707.410156 133.027344 C 703.152344 138.105469 701.722656 144.421875 702.964844 150.976562 C 703.734375 154.921875 708.742188 157.507812 712.449219 156.265625 C 714.078125 156.046875 715.648438 155.332031 717.027344 154.132812 C 729.246094 143.863281 741.460938 133.597656 753.675781 123.328125 C 759.785156 118.15625 765.875 113.011719 772 107.886719 Z M 780.335938 76.578125 Z M 780.042969 76.203125 C 779.992188 76.21875 779.992188 76.21875 780.042969 76.203125 C 779.867188 76.0625 779.902344 76.082031 780.042969 76.203125 Z M 778.351562 76.308594 C 778.203125 76.347656 778.070312 76.359375 778.070312 76.359375 C 778.089844 76.328125 778.21875 76.316406 778.351562 76.308594 Z M 744.117188 111.34375 C 742.515625 112.710938 740.902344 114.03125 739.300781 115.398438 C 740.617188 113.789062 741.917969 112.210938 743.265625 110.617188 C 752.277344 99.941406 761.84375 89.539062 772.207031 80.121094 C 772.734375 79.621094 773.28125 79.171875 773.839844 78.6875 C 773.910156 78.644531 773.960938 78.546875 774.03125 78.5 C 774.183594 78.378906 774.398438 78.289062 774.484375 78.210938 C 775.09375 77.796875 775.683594 77.414062 776.289062 77.082031 C 776.472656 76.976562 776.726562 76.824219 776.960938 76.703125 C 777.089844 76.691406 777.289062 76.636719 777.507812 76.546875 C 777.804688 76.460938 778.136719 76.394531 778.433594 76.308594 C 778.597656 76.316406 778.808594 76.3125 778.941406 76.300781 C 778.910156 76.28125 778.894531 76.234375 778.882812 76.183594 C 778.882812 76.183594 779.042969 76.191406 779.285156 76.285156 C 779.730469 76.238281 779.726562 76.320312 779.546875 76.34375 C 779.753906 76.417969 779.980469 76.460938 780.128906 76.5 C 780.160156 76.519531 780.171875 76.570312 780.207031 76.585938 C 780.207031 76.585938 780.21875 76.636719 780.21875 76.636719 C 780.21875 76.636719 780.238281 76.605469 780.207031 76.585938 C 780.207031 76.585938 780.238281 76.605469 780.238281 76.605469 C 780.238281 76.605469 780.238281 76.605469 780.253906 76.574219 C 780.253906 76.574219 780.285156 76.589844 780.269531 76.621094 C 780.265625 76.703125 780.292969 76.804688 780.320312 76.902344 C 780.425781 77.167969 780.398438 77.363281 780.347656 77.378906 C 780.355469 77.59375 780.363281 77.804688 780.371094 78.019531 C 780.269531 78.421875 780.1875 78.796875 780.054688 79.183594 C 779.914062 79.4375 779.796875 79.792969 779.710938 79.953125 C 779.496094 80.335938 779.234375 80.734375 779.019531 81.117188 C 779 81.148438 778.964844 81.210938 778.929688 81.277344 C 778.964844 81.210938 779.03125 81.164062 779.070312 81.101562 C 779.03125 81.164062 778.964844 81.210938 778.929688 81.277344 C 778.703125 81.609375 778.324219 81.984375 778.910156 81.308594 C 778.359375 81.921875 777.859375 82.519531 777.273438 83.117188 C 772.316406 88.179688 766.441406 92.480469 761.015625 97.03125 C 755.398438 101.851562 749.75 106.574219 744.117188 111.34375 Z M 744.117188 111.34375 " fill-opacity="1" fill-rule="nonzero"/></g></g></g><g clip-path="url(#6266b9df13)"><g clip-path="url(#71f24d6d09)"><g clip-path="url(#27324e09a6)"><path fill="#eb8d00" d="M 779.578125 76.363281 C 779.464844 76.339844 779.398438 76.304688 779.316406 76.300781 C 779.269531 76.316406 779.269531 76.316406 779.21875 76.328125 C 779.167969 76.34375 779.085938 76.339844 778.972656 76.320312 C 779.117188 76.4375 779.429688 76.40625 779.578125 76.363281 Z M 779.578125 76.363281 " fill-opacity="1" fill-rule="nonzero"/></g></g></g><g clip-path="url(#2bc689707f)"><g clip-path="url(#92e954f0a7)"><g clip-path="url(#c759c93984)"><path fill="#eb8d00" d="M 780.394531 77.445312 C 780.398438 77.363281 780.402344 77.28125 780.390625 77.234375 C 780.390625 77.152344 780.378906 77.101562 780.351562 77.003906 C 780.351562 77.003906 780.320312 76.902344 780.308594 76.851562 C 780.324219 76.820312 780.324219 76.820312 780.3125 76.773438 C 780.328125 76.738281 780.296875 76.722656 780.316406 76.691406 C 780.316406 76.691406 780.316406 76.691406 780.285156 76.671875 C 780.265625 76.703125 780.296875 76.722656 780.28125 76.753906 C 780.28125 76.753906 780.265625 76.703125 780.234375 76.6875 C 780.242188 76.816406 780.242188 76.898438 780.253906 76.949219 C 780.273438 77.292969 780.347656 77.460938 780.394531 77.445312 Z M 780.394531 77.445312 " fill-opacity="1" fill-rule="nonzero"/></g></g></g><g clip-path="url(#1e3a577714)"><g clip-path="url(#19fa46be85)"><g clip-path="url(#a59311c23f)"><path fill="#eb8d00" d="M 821.324219 116.433594 C 813.21875 109.191406 802.765625 115.625 794.949219 119.808594 C 787.707031 123.636719 780.640625 127.820312 773.761719 132.273438 C 759.515625 141.53125 746.046875 152.019531 733.609375 163.589844 C 729.804688 163.351562 726.898438 165.707031 725.574219 169.363281 C 724.917969 171.214844 724.277344 173.035156 723.621094 174.890625 C 722.851562 177.097656 723.75 179.691406 725.09375 181.40625 C 726.703125 183.472656 728.71875 184.136719 731.261719 184.382812 C 759.277344 187.070312 788.089844 175.71875 807.855469 155.890625 C 812.914062 150.800781 817.410156 145.0625 821.15625 138.945312 C 825.253906 132.273438 828.179688 122.601562 821.324219 116.433594 Z M 812.761719 128.402344 C 812.726562 128.464844 812.675781 128.480469 812.609375 128.527344 C 812.578125 128.507812 812.527344 128.523438 812.464844 128.488281 C 812.613281 128.445312 812.742188 128.433594 812.761719 128.402344 Z M 810.136719 125.976562 C 810.121094 126.007812 810.132812 126.058594 810.128906 126.140625 C 810.113281 126.171875 810.105469 126.335938 810.113281 126.546875 C 810.109375 126.628906 810.054688 126.726562 810.050781 126.808594 C 809.925781 126.359375 810.039062 126.003906 810.136719 125.976562 Z M 812.007812 128.402344 C 812.007812 128.402344 812.039062 128.417969 812.007812 128.402344 C 812.007812 128.402344 811.976562 128.382812 811.925781 128.398438 C 811.925781 128.398438 811.960938 128.414062 811.960938 128.414062 C 811.976562 128.382812 812.007812 128.402344 812.007812 128.402344 Z M 812.414062 128.5 C 812.445312 128.519531 812.496094 128.503906 812.527344 128.523438 C 812.445312 128.519531 812.347656 128.546875 812.28125 128.511719 C 812.3125 128.53125 812.363281 128.515625 812.414062 128.5 Z M 750.992188 168.597656 C 751.222656 168.558594 751.355469 168.546875 750.992188 168.597656 Z M 805.828125 134.457031 C 805.425781 135.027344 805.003906 135.628906 804.601562 136.203125 C 804.480469 136.34375 804.375 136.535156 804.285156 136.695312 C 804.199219 136.773438 804.097656 136.882812 803.921875 137.121094 C 802.078125 139.523438 800.09375 141.808594 798 143.988281 C 795.816406 146.246094 793.546875 148.371094 791.164062 150.390625 C 790.6875 150.796875 790.175781 151.183594 789.683594 151.617188 C 789.734375 151.605469 789.75 151.570312 789.820312 151.527344 C 789.734375 151.605469 789.664062 151.648438 789.546875 151.710938 C 789.53125 151.742188 789.53125 151.742188 789.480469 151.757812 C 789.414062 151.800781 789.34375 151.847656 789.277344 151.894531 C 789.175781 152.003906 789.058594 152.0625 788.953125 152.175781 C 787.667969 153.128906 786.347656 154.070312 785.046875 154.976562 C 782.515625 156.664062 779.925781 158.230469 777.273438 159.683594 C 775.945312 160.410156 774.574219 161.066406 773.203125 161.726562 C 772.566406 162.039062 771.898438 162.335938 771.28125 162.621094 C 771.0625 162.710938 770.878906 162.816406 770.664062 162.902344 C 770.5625 162.933594 770.394531 163.007812 770.128906 163.109375 C 766.894531 164.402344 763.621094 165.546875 760.253906 166.476562 C 758.714844 166.914062 757.15625 167.304688 755.585938 167.640625 C 754.246094 167.941406 752.605469 168.03125 751.199219 168.375 C 753.292969 166.570312 755.390625 164.769531 757.53125 163.03125 C 758.972656 161.867188 760.417969 160.707031 761.859375 159.542969 C 761.945312 159.464844 762.097656 159.34375 762.253906 159.21875 C 762.472656 159.046875 762.675781 158.910156 762.863281 158.722656 C 763.726562 158.074219 764.609375 157.394531 765.472656 156.746094 C 768.4375 154.503906 771.449219 152.332031 774.507812 150.230469 C 780.707031 145.941406 787.0625 141.90625 793.582031 138.09375 C 796.792969 136.242188 800.035156 134.40625 803.335938 132.691406 C 804.996094 131.816406 806.640625 130.972656 808.28125 130.132812 C 808.398438 130.070312 808.515625 130.011719 808.683594 129.9375 C 808.558594 130.160156 808.453125 130.351562 808.328125 130.574219 C 807.496094 131.914062 806.703125 133.1875 805.828125 134.457031 Z M 805.828125 134.457031 " fill-opacity="1" fill-rule="nonzero"/></g></g></g><g clip-path="url(#1bba7478ff)"><g clip-path="url(#0de3a40dfc)"><g clip-path="url(#3fc5403d73)"><path fill="#eb8d00" d="M 789.308594 151.910156 C 789.394531 151.832031 789.464844 151.789062 789.582031 151.726562 C 789.628906 151.714844 789.664062 151.648438 789.714844 151.636719 C 788.671875 152.308594 788.972656 152.140625 789.308594 151.910156 Z M 789.308594 151.910156 " fill-opacity="1" fill-rule="nonzero"/></g></g></g><g clip-path="url(#858ff06de2)"><g transform="matrix(1, 0, 0, 1, 0, 432)"><g clip-path="url(#3397f981d6)"><g fill="#eb8d00" fill-opacity="1"><g transform="translate(19.785641, 177.937244)"><g><path d="M 115.25 -8.3125 C 119.5625 -7.519531 122.835938 -5.820312 125.078125 -3.21875 C 127.328125 -0.625 128.617188 2.414062 128.953125 5.90625 C 129.285156 9.40625 128.75 12.796875 127.34375 16.078125 C 125.9375 19.367188 123.769531 21.9375 120.84375 23.78125 C 117.914062 25.625 114.265625 26.222656 109.890625 25.578125 C 101.953125 24.296875 94.039062 22.492188 86.15625 20.171875 C 78.269531 17.859375 70.910156 14.566406 64.078125 10.296875 C 57.253906 6.023438 51.367188 0.515625 46.421875 -6.234375 C 40.035156 -14.972656 36.539062 -24.65625 35.9375 -35.28125 C 35.332031 -45.914062 37.5 -56.125 42.4375 -65.90625 C 47.394531 -75.351562 54.03125 -83.53125 62.34375 -90.4375 C 70.65625 -97.351562 79.929688 -102.625 90.171875 -106.25 C 100.410156 -109.875 110.898438 -111.457031 121.640625 -111 C 132.378906 -110.539062 142.476562 -107.671875 151.9375 -102.390625 C 155.832031 -100.296875 158.472656 -97.554688 159.859375 -94.171875 C 161.242188 -90.785156 161.59375 -87.328125 160.90625 -83.796875 C 160.21875 -80.265625 158.800781 -77.144531 156.65625 -74.4375 C 154.519531 -71.738281 151.816406 -70.003906 148.546875 -69.234375 C 145.273438 -68.472656 141.691406 -69.140625 137.796875 -71.234375 C 130.835938 -75.054688 123.398438 -76.800781 115.484375 -76.46875 C 107.566406 -76.132812 100.085938 -74.097656 93.046875 -70.359375 C 86.003906 -66.628906 80.234375 -61.441406 75.734375 -54.796875 C 71.648438 -49.140625 69.675781 -43.984375 69.8125 -39.328125 C 69.957031 -34.671875 71.476562 -30.554688 74.375 -26.984375 C 77.269531 -23.421875 81.023438 -20.382812 85.640625 -17.875 C 90.253906 -15.363281 95.160156 -13.300781 100.359375 -11.6875 C 105.566406 -10.082031 110.53125 -8.957031 115.25 -8.3125 Z M 115.25 -8.3125 "/></g></g></g><g fill="#eb8d00" fill-opacity="1"><g transform="translate(150.440186, 237.067634)"><g><path d="M 164.3125 -101 C 166.03125 -94.25 166.445312 -87.148438 165.5625 -79.703125 C 164.675781 -72.253906 163.039062 -64.957031 160.65625 -57.8125 C 158.269531 -50.664062 155.597656 -44.132812 152.640625 -38.21875 C 148.203125 -29.082031 142.394531 -20.929688 135.21875 -13.765625 C 128.050781 -6.597656 119.722656 -1.070312 110.234375 2.8125 C 101.117188 6.5 91.335938 8.226562 80.890625 8 C 70.453125 7.769531 61.113281 4.78125 52.875 -0.96875 C 47.363281 -4.757812 43.03125 -9.53125 39.875 -15.28125 C 36.726562 -21.03125 34.503906 -27.179688 33.203125 -33.734375 C 31.898438 -40.285156 31.425781 -46.6875 31.78125 -52.9375 C 32.03125 -59.863281 33.3125 -67.546875 35.625 -75.984375 C 37.9375 -84.421875 41.175781 -92.769531 45.34375 -101.03125 C 49.507812 -109.300781 54.4375 -116.6875 60.125 -123.1875 C 65.820312 -129.695312 72.269531 -134.53125 79.46875 -137.6875 C 87.125 -141.84375 95.398438 -143.882812 104.296875 -143.8125 C 113.203125 -143.75 121.8125 -141.984375 130.125 -138.515625 C 138.4375 -135.054688 145.648438 -130.101562 151.765625 -123.65625 C 157.890625 -117.21875 162.070312 -109.664062 164.3125 -101 Z M 98.28125 -28.640625 C 104.65625 -31.742188 110 -36.007812 114.3125 -41.4375 C 118.632812 -46.863281 122.140625 -52.859375 124.828125 -59.421875 C 127.515625 -65.984375 129.414062 -72.597656 130.53125 -79.265625 C 131.65625 -85.921875 130.785156 -91.925781 127.921875 -97.28125 C 125.054688 -102.632812 120.179688 -106.304688 113.296875 -108.296875 C 109.523438 -109.472656 105.566406 -109.664062 101.421875 -108.875 C 97.273438 -108.09375 93.566406 -106.546875 90.296875 -104.234375 C 86.554688 -101.410156 83.3125 -97.640625 80.5625 -92.921875 C 77.820312 -88.203125 75.476562 -83.753906 73.53125 -79.578125 C 69.195312 -70.265625 66.722656 -60.53125 66.109375 -50.375 C 65.972656 -47.382812 66.09375 -44.316406 66.46875 -41.171875 C 66.84375 -38.023438 67.914062 -35.222656 69.6875 -32.765625 C 72.613281 -28.828125 76.632812 -26.5 81.75 -25.78125 C 86.863281 -25.070312 91.707031 -25.671875 96.28125 -27.578125 C 96.851562 -27.878906 97.519531 -28.234375 98.28125 -28.640625 Z M 98.28125 -28.640625 "/></g></g></g><g fill="#eb8d00" fill-opacity="1"><g transform="translate(301.031118, 283.332814)"><g><path d="M 149.84375 -121.4375 C 152.414062 -114.96875 153.742188 -107.984375 153.828125 -100.484375 C 153.921875 -92.984375 153.242188 -85.535156 151.796875 -78.140625 C 150.359375 -70.753906 148.5625 -63.929688 146.40625 -57.671875 C 143.1875 -48.046875 138.484375 -39.210938 132.296875 -31.171875 C 126.117188 -23.140625 118.578125 -16.582031 109.671875 -11.5 C 101.109375 -6.65625 91.632812 -3.671875 81.25 -2.546875 C 70.875 -1.421875 61.226562 -3.175781 52.3125 -7.8125 C 46.351562 -10.851562 41.4375 -15.019531 37.5625 -20.3125 C 33.695312 -25.613281 30.691406 -31.425781 28.546875 -37.75 C 26.410156 -44.070312 25.113281 -50.359375 24.65625 -56.609375 C 24.007812 -63.515625 24.285156 -71.300781 25.484375 -79.96875 C 26.679688 -88.632812 28.804688 -97.332031 31.859375 -106.0625 C 34.921875 -114.789062 38.847656 -122.75 43.640625 -129.9375 C 48.441406 -137.132812 54.210938 -142.765625 60.953125 -146.828125 C 68.015625 -151.929688 75.960938 -155.023438 84.796875 -156.109375 C 93.628906 -157.203125 102.390625 -156.570312 111.078125 -154.21875 C 119.773438 -151.863281 127.570312 -147.890625 134.46875 -142.296875 C 141.375 -136.703125 146.5 -129.75 149.84375 -121.4375 Z M 93.734375 -41.125 C 99.660156 -45.039062 104.414062 -49.960938 108 -55.890625 C 111.582031 -61.828125 114.273438 -68.222656 116.078125 -75.078125 C 117.890625 -81.941406 118.914062 -88.757812 119.15625 -95.53125 C 119.414062 -102.257812 117.773438 -108.09375 114.234375 -113.03125 C 110.691406 -117.976562 105.382812 -120.988281 98.3125 -122.0625 C 94.425781 -122.726562 90.472656 -122.40625 86.453125 -121.09375 C 82.441406 -119.789062 78.96875 -117.773438 76.03125 -115.046875 C 72.6875 -111.773438 69.957031 -107.617188 67.84375 -102.578125 C 65.738281 -97.546875 63.992188 -92.832031 62.609375 -88.4375 C 59.515625 -78.632812 58.316406 -68.660156 59.015625 -58.515625 C 59.265625 -55.535156 59.78125 -52.507812 60.5625 -49.4375 C 61.351562 -46.363281 62.785156 -43.726562 64.859375 -41.53125 C 68.265625 -37.988281 72.546875 -36.195312 77.703125 -36.15625 C 82.867188 -36.113281 87.597656 -37.332031 91.890625 -39.8125 C 92.421875 -40.1875 93.035156 -40.625 93.734375 -41.125 Z M 93.734375 -41.125 "/></g></g></g><g fill="#eb8d00" fill-opacity="1"><g transform="translate(455.730586, 309.05185)"><g><path d="M 121.234375 -138.171875 C 116.296875 -130.660156 111.007812 -123.28125 105.375 -116.03125 C 99.75 -108.78125 93.367188 -102.363281 86.234375 -96.78125 C 99.972656 -79.332031 107.242188 -59.09375 108.046875 -36.0625 C 108.128906 -31.789062 107.078125 -28.378906 104.890625 -25.828125 C 102.710938 -23.273438 99.96875 -21.664062 96.65625 -21 C 93.34375 -20.332031 89.957031 -20.503906 86.5 -21.515625 C 83.050781 -22.523438 80.101562 -24.421875 77.65625 -27.203125 C 75.21875 -29.992188 73.957031 -33.53125 73.875 -37.8125 C 73.53125 -46.039062 71.722656 -53.894531 68.453125 -61.375 C 65.179688 -68.851562 60.726562 -75.472656 55.09375 -81.234375 C 52.582031 -62.023438 49.550781 -43.070312 46 -24.375 C 45.394531 -21.363281 43.863281 -18.894531 41.40625 -16.96875 C 38.945312 -15.039062 36.140625 -13.734375 32.984375 -13.046875 C 29.828125 -12.367188 26.90625 -12.476562 24.21875 -13.375 C 19.425781 -15 16.21875 -17.867188 14.59375 -21.984375 C 12.976562 -26.097656 12.59375 -30.414062 13.4375 -34.9375 C 17.425781 -56.363281 20.691406 -77.9375 23.234375 -99.65625 C 25.785156 -121.375 27.691406 -143.085938 28.953125 -164.796875 C 29.179688 -169.191406 30.503906 -172.660156 32.921875 -175.203125 C 35.335938 -177.753906 38.273438 -179.359375 41.734375 -180.015625 C 45.191406 -180.679688 48.609375 -180.507812 51.984375 -179.5 C 55.359375 -178.488281 58.113281 -176.59375 60.25 -173.8125 C 62.394531 -171.039062 63.351562 -167.457031 63.125 -163.0625 C 62.59375 -155.625 62.0625 -148.226562 61.53125 -140.875 C 61.007812 -133.519531 60.332031 -126.128906 59.5 -118.703125 C 64.195312 -121.203125 68.5625 -124.671875 72.59375 -129.109375 C 76.625 -133.554688 80.285156 -138.28125 83.578125 -143.28125 C 86.878906 -148.289062 89.859375 -152.78125 92.515625 -156.75 C 94.984375 -160.4375 97.875 -162.765625 101.1875 -163.734375 C 104.507812 -164.710938 107.851562 -164.65625 111.21875 -163.5625 C 114.59375 -162.476562 117.46875 -160.617188 119.84375 -157.984375 C 122.226562 -155.359375 123.632812 -152.320312 124.0625 -148.875 C 124.5 -145.425781 123.554688 -141.859375 121.234375 -138.171875 Z M 121.234375 -138.171875 "/></g></g></g><g fill="#eb8d00" fill-opacity="1"><g transform="translate(592.524801, 316.21701)"><g><path d="M 130.90625 -134.796875 C 132.757812 -128.066406 132.816406 -121.972656 131.078125 -116.515625 C 129.335938 -111.054688 126.300781 -106.148438 121.96875 -101.796875 C 117.632812 -97.441406 112.539062 -93.597656 106.6875 -90.265625 C 108.707031 -87.671875 110.320312 -84.78125 111.53125 -81.59375 C 112.75 -78.414062 113.5 -74.851562 113.78125 -70.90625 C 114.457031 -63.78125 113.460938 -57.03125 110.796875 -50.65625 C 108.140625 -44.28125 104.363281 -38.554688 99.46875 -33.484375 C 94.570312 -28.410156 89.003906 -24.195312 82.765625 -20.84375 C 76.535156 -17.5 70.1875 -15.210938 63.71875 -13.984375 C 54.394531 -12.097656 45.53125 -12.332031 37.125 -14.6875 C 28.726562 -17.050781 21.816406 -21.429688 16.390625 -27.828125 C 10.972656 -34.222656 8.050781 -42.515625 7.625 -52.703125 C 6.882812 -69.265625 7.34375 -86.101562 9 -103.21875 C 10.664062 -120.34375 12.039062 -137.179688 13.125 -153.734375 C 13.4375 -157.867188 15.484375 -161.210938 19.265625 -163.765625 C 23.046875 -166.328125 26.847656 -167.515625 30.671875 -167.328125 C 31.253906 -167.679688 31.765625 -168.023438 32.203125 -168.359375 C 38.554688 -171.117188 45.628906 -172.929688 53.421875 -173.796875 C 61.210938 -174.660156 69.148438 -174.503906 77.234375 -173.328125 C 85.328125 -172.160156 93.03125 -169.972656 100.34375 -166.765625 C 107.664062 -163.554688 114.035156 -159.289062 119.453125 -153.96875 C 124.867188 -148.644531 128.6875 -142.253906 130.90625 -134.796875 Z M 72.25 -139.484375 C 67.4375 -140.492188 62.953125 -140.773438 58.796875 -140.328125 C 54.648438 -139.878906 50.425781 -138.8125 46.125 -137.125 C 45.726562 -132.070312 45.398438 -127.09375 45.140625 -122.1875 C 44.878906 -117.28125 44.628906 -112.3125 44.390625 -107.28125 C 45.429688 -107.65625 46.484375 -107.882812 47.546875 -107.96875 C 48.460938 -108.03125 49.675781 -108.117188 51.1875 -108.234375 C 56.039062 -108.578125 60.789062 -109.296875 65.4375 -110.390625 C 70.082031 -111.492188 74.691406 -113.046875 79.265625 -115.046875 C 80.453125 -115.597656 82.519531 -116.585938 85.46875 -118.015625 C 88.414062 -119.453125 91.128906 -120.941406 93.609375 -122.484375 C 96.085938 -124.035156 97.359375 -125.351562 97.421875 -126.4375 C 97.460938 -128.113281 96.363281 -129.671875 94.125 -131.109375 C 91.882812 -132.546875 89.234375 -133.875 86.171875 -135.09375 C 83.117188 -136.320312 80.265625 -137.335938 77.609375 -138.140625 C 74.953125 -138.941406 73.164062 -139.390625 72.25 -139.484375 Z M 75.625 -58.0625 C 78.832031 -62.113281 80.085938 -65.289062 79.390625 -67.59375 C 78.691406 -69.90625 76.859375 -71.523438 73.890625 -72.453125 C 70.929688 -73.390625 67.535156 -73.945312 63.703125 -74.125 C 59.878906 -74.3125 56.453125 -74.296875 53.421875 -74.078125 C 52.066406 -73.972656 50.929688 -73.890625 50.015625 -73.828125 C 47.273438 -73.628906 44.726562 -73.976562 42.375 -74.875 C 42.375 -72.894531 42.328125 -70.910156 42.234375 -68.921875 C 42.148438 -66.941406 42.03125 -64.953125 41.875 -62.953125 C 41.875 -60.828125 41.757812 -58.148438 41.53125 -54.921875 C 41.3125 -51.691406 41.941406 -49.375 43.421875 -47.96875 C 45.523438 -46.289062 48.128906 -45.523438 51.234375 -45.671875 C 54.347656 -45.828125 57.53125 -46.59375 60.78125 -47.96875 C 64.03125 -49.34375 67 -50.96875 69.6875 -52.84375 C 72.382812 -54.71875 74.363281 -56.457031 75.625 -58.0625 Z M 75.625 -58.0625 "/></g></g></g><g fill="#eb8d00" fill-opacity="1"><g transform="translate(754.290099, 303.711491)"><g><path d="M 94.71875 -168.015625 C 99.5 -162.941406 103.304688 -156.929688 106.140625 -149.984375 C 108.984375 -143.035156 111.09375 -135.859375 112.46875 -128.453125 C 113.84375 -121.054688 114.671875 -114.050781 114.953125 -107.4375 C 115.503906 -97.300781 114.378906 -87.363281 111.578125 -77.625 C 108.785156 -67.882812 104.179688 -59.007812 97.765625 -51 C 91.585938 -43.351562 83.875 -37.097656 74.625 -32.234375 C 65.382812 -27.367188 55.765625 -25.453125 45.765625 -26.484375 C 39.109375 -27.128906 33.007812 -29.203125 27.46875 -32.703125 C 21.925781 -36.210938 17 -40.507812 12.6875 -45.59375 C 8.375 -50.6875 4.851562 -56.054688 2.125 -61.703125 C -1.019531 -67.890625 -3.625 -75.234375 -5.6875 -83.734375 C -7.757812 -92.234375 -8.976562 -101.101562 -9.34375 -110.34375 C -9.707031 -119.59375 -8.976562 -128.441406 -7.15625 -136.890625 C -5.332031 -145.335938 -2.035156 -152.695312 2.734375 -158.96875 C 7.421875 -166.300781 13.671875 -172.097656 21.484375 -176.359375 C 29.296875 -180.617188 37.675781 -183.25 46.625 -184.25 C 55.582031 -185.25 64.296875 -184.414062 72.765625 -181.75 C 81.242188 -179.082031 88.5625 -174.503906 94.71875 -168.015625 Z M 72.078125 -72.703125 C 76.140625 -78.515625 78.742188 -84.835938 79.890625 -91.671875 C 81.035156 -98.503906 81.191406 -105.441406 80.359375 -112.484375 C 79.523438 -119.535156 77.984375 -126.25 75.734375 -132.625 C 73.484375 -138.988281 69.804688 -143.816406 64.703125 -147.109375 C 59.597656 -150.398438 53.554688 -151.25 46.578125 -149.65625 C 42.710938 -148.851562 39.15625 -147.101562 35.90625 -144.40625 C 32.664062 -141.71875 30.175781 -138.5625 28.4375 -134.9375 C 26.519531 -130.65625 25.503906 -125.785156 25.390625 -120.328125 C 25.285156 -114.878906 25.394531 -109.859375 25.71875 -105.265625 C 26.445312 -95.003906 29.003906 -85.285156 33.390625 -76.109375 C 34.710938 -73.429688 36.300781 -70.804688 38.15625 -68.234375 C 40.007812 -65.671875 42.3125 -63.742188 45.0625 -62.453125 C 49.53125 -60.421875 54.171875 -60.328125 58.984375 -62.171875 C 63.804688 -64.023438 67.757812 -66.898438 70.84375 -70.796875 C 71.195312 -71.335938 71.609375 -71.972656 72.078125 -72.703125 Z M 72.078125 -72.703125 "/></g></g></g><g fill="#eb8d00" fill-opacity="1"><g transform="translate(907.41775, 270.701064)"><g><path d="M 49.234375 -120.890625 C 59.148438 -118.117188 67.9375 -113.082031 75.59375 -105.78125 C 83.25 -98.488281 88.21875 -89.769531 90.5 -79.625 C 92.382812 -70.625 91.925781 -62.164062 89.125 -54.25 C 86.320312 -46.34375 81.914062 -39.5 75.90625 -33.71875 C 69.894531 -27.945312 62.945312 -23.535156 55.0625 -20.484375 C 47.1875 -17.441406 39.0625 -16.207031 30.6875 -16.78125 C 22.320312 -17.351562 14.507812 -20.101562 7.25 -25.03125 C 3.488281 -27.632812 1.316406 -30.519531 0.734375 -33.6875 C 0.160156 -36.863281 0.601562 -39.976562 2.0625 -43.03125 C 3.53125 -46.082031 5.765625 -48.632812 8.765625 -50.6875 C 11.773438 -52.738281 15.113281 -53.898438 18.78125 -54.171875 C 22.457031 -54.441406 26.078125 -53.320312 29.640625 -50.8125 C 31.328125 -49.613281 33.789062 -49.4375 37.03125 -50.28125 C 40.28125 -51.125 43.40625 -52.332031 46.40625 -53.90625 C 49.414062 -55.488281 51.472656 -56.78125 52.578125 -57.78125 C 55.117188 -60.238281 56.675781 -63.125 57.25 -66.4375 C 57.820312 -69.757812 57.335938 -73.003906 55.796875 -76.171875 C 54.015625 -80.066406 51.453125 -82.9375 48.109375 -84.78125 C 44.765625 -86.625 41.082031 -87.914062 37.0625 -88.65625 C 33.039062 -89.40625 28.992188 -90.101562 24.921875 -90.75 C 20.859375 -91.394531 17.175781 -92.363281 13.875 -93.65625 C 4.539062 -97.582031 -2.175781 -103.023438 -6.28125 -109.984375 C -10.382812 -116.953125 -12.332031 -124.554688 -12.125 -132.796875 C -11.914062 -141.046875 -10.015625 -149.144531 -6.421875 -157.09375 C -2.835938 -165.039062 1.984375 -171.953125 8.046875 -177.828125 C 11.359375 -180.859375 14.800781 -182.53125 18.375 -182.84375 C 21.957031 -183.164062 25.347656 -182.5 28.546875 -180.84375 C 31.753906 -179.1875 34.320312 -176.914062 36.25 -174.03125 C 38.175781 -171.15625 39.046875 -168.078125 38.859375 -164.796875 C 38.671875 -161.523438 37.019531 -158.328125 33.90625 -155.203125 C 31.84375 -153.222656 29.523438 -150.679688 26.953125 -147.578125 C 24.378906 -144.484375 22.519531 -141.175781 21.375 -137.65625 C 20.226562 -134.144531 20.882812 -130.878906 23.34375 -127.859375 C 24.832031 -125.785156 27.1875 -124.367188 30.40625 -123.609375 C 33.625 -122.847656 36.96875 -122.320312 40.4375 -122.03125 C 43.90625 -121.75 46.835938 -121.367188 49.234375 -120.890625 Z M 49.234375 -120.890625 "/></g></g></g><g fill="#eb8d00" fill-opacity="1"><g transform="translate(1031.260443, 228.770812)"><g><path d="M 35.9375 -125.484375 C 46.09375 -123.796875 55.367188 -119.734375 63.765625 -113.296875 C 72.160156 -106.867188 78.03125 -98.738281 81.375 -88.90625 C 84.226562 -80.164062 84.6875 -71.710938 82.75 -63.546875 C 80.820312 -55.378906 77.179688 -48.097656 71.828125 -41.703125 C 66.484375 -35.304688 60.054688 -30.171875 52.546875 -26.296875 C 45.035156 -22.429688 37.085938 -20.328125 28.703125 -19.984375 C 20.328125 -19.648438 12.265625 -21.546875 4.515625 -25.671875 C 0.492188 -27.847656 -1.972656 -30.476562 -2.890625 -33.5625 C -3.804688 -36.65625 -3.703125 -39.800781 -2.578125 -43 C -1.453125 -46.195312 0.488281 -48.972656 3.25 -51.328125 C 6.007812 -53.691406 9.207031 -55.207031 12.84375 -55.875 C 16.476562 -56.539062 20.195312 -55.820312 24 -53.71875 C 25.800781 -52.707031 28.269531 -52.796875 31.40625 -53.984375 C 34.539062 -55.171875 37.519531 -56.707031 40.34375 -58.59375 C 43.164062 -60.476562 45.066406 -61.984375 46.046875 -63.109375 C 48.316406 -65.828125 49.554688 -68.863281 49.765625 -72.21875 C 49.984375 -75.582031 49.148438 -78.757812 47.265625 -81.75 C 45.078125 -85.425781 42.21875 -88 38.6875 -89.46875 C 35.164062 -90.945312 31.367188 -91.835938 27.296875 -92.140625 C 23.222656 -92.441406 19.128906 -92.691406 15.015625 -92.890625 C 10.898438 -93.097656 7.128906 -93.671875 3.703125 -94.609375 C -5.992188 -97.503906 -13.257812 -102.191406 -18.09375 -108.671875 C -22.925781 -115.148438 -25.679688 -122.5 -26.359375 -130.71875 C -27.035156 -138.945312 -26.015625 -147.203125 -23.296875 -155.484375 C -20.585938 -163.773438 -16.539062 -171.164062 -11.15625 -177.65625 C -8.1875 -181.03125 -4.9375 -183.066406 -1.40625 -183.765625 C 2.113281 -184.460938 5.554688 -184.160156 8.921875 -182.859375 C 12.285156 -181.566406 15.078125 -179.585938 17.296875 -176.921875 C 19.523438 -174.265625 20.71875 -171.300781 20.875 -168.03125 C 21.039062 -164.757812 19.742188 -161.398438 16.984375 -157.953125 C 15.148438 -155.765625 13.125 -152.988281 10.90625 -149.625 C 8.6875 -146.269531 7.191406 -142.78125 6.421875 -139.15625 C 5.660156 -135.53125 6.664062 -132.351562 9.4375 -129.625 C 11.144531 -127.726562 13.640625 -126.578125 16.921875 -126.171875 C 20.210938 -125.765625 23.59375 -125.601562 27.0625 -125.6875 C 30.53125 -125.78125 33.488281 -125.710938 35.9375 -125.484375 Z M 35.9375 -125.484375 "/></g></g></g></g></g></g></g></g></svg>