<svg xmlns="http://www.w3.org/2000/svg" xmlns:xlink="http://www.w3.org/1999/xlink" width="2000" zoomAndPan="magnify" viewBox="0 0 1500 1499.999933" height="2000" preserveAspectRatio="xMidYMid meet" version="1.0"><defs><clipPath id="738e38ba87"><path d="M 986 25 L 1200 25 L 1200 356 L 986 356 Z M 986 25 " clip-rule="nonzero"/></clipPath><clipPath id="de5a9efdcc"><path d="M 1121.398438 -0.0507812 L 1474.398438 196.828125 L 1262.5 576.761719 L 909.5 379.886719 Z M 1121.398438 -0.0507812 " clip-rule="nonzero"/></clipPath><clipPath id="240a567c7b"><path d="M 1121.398438 -0.0507812 L 1474.398438 196.828125 L 1262.5 576.761719 L 909.5 379.886719 Z M 1121.398438 -0.0507812 " clip-rule="nonzero"/></clipPath><clipPath id="2230e106da"><path d="M 1053 164 L 1306 164 L 1306 424 L 1053 424 Z M 1053 164 " clip-rule="nonzero"/></clipPath><clipPath id="5be27f6a26"><path d="M 1121.398438 -0.0507812 L 1474.398438 196.828125 L 1262.5 576.761719 L 909.5 379.886719 Z M 1121.398438 -0.0507812 " clip-rule="nonzero"/></clipPath><clipPath id="692fed1b90"><path d="M 1121.398438 -0.0507812 L 1474.398438 196.828125 L 1262.5 576.761719 L 909.5 379.886719 Z M 1121.398438 -0.0507812 " clip-rule="nonzero"/></clipPath><clipPath id="978728ba94"><path d="M 1260 206 L 1262 206 L 1262 207 L 1260 207 Z M 1260 206 " clip-rule="nonzero"/></clipPath><clipPath id="0096301636"><path d="M 1121.398438 -0.0507812 L 1474.398438 196.828125 L 1262.5 576.761719 L 909.5 379.886719 Z M 1121.398438 -0.0507812 " clip-rule="nonzero"/></clipPath><clipPath id="4ddaa97a06"><path d="M 1121.398438 -0.0507812 L 1474.398438 196.828125 L 1262.5 576.761719 L 909.5 379.886719 Z M 1121.398438 -0.0507812 " clip-rule="nonzero"/></clipPath><clipPath id="2128ec9962"><path d="M 1263 207 L 1265 207 L 1265 210 L 1263 210 Z M 1263 207 " clip-rule="nonzero"/></clipPath><clipPath id="55ac7d8fea"><path d="M 1121.398438 -0.0507812 L 1474.398438 196.828125 L 1262.5 576.761719 L 909.5 379.886719 Z M 1121.398438 -0.0507812 " clip-rule="nonzero"/></clipPath><clipPath id="24632c4cfe"><path d="M 1121.398438 -0.0507812 L 1474.398438 196.828125 L 1262.5 576.761719 L 909.5 379.886719 Z M 1121.398438 -0.0507812 " clip-rule="nonzero"/></clipPath><clipPath id="9f01d87152"><path d="M 1109 305 L 1386 305 L 1386 500 L 1109 500 Z M 1109 305 " clip-rule="nonzero"/></clipPath><clipPath id="125a627b5a"><path d="M 1121.398438 -0.0507812 L 1474.398438 196.828125 L 1262.5 576.761719 L 909.5 379.886719 Z M 1121.398438 -0.0507812 " clip-rule="nonzero"/></clipPath><clipPath id="79b79ddfda"><path d="M 1121.398438 -0.0507812 L 1474.398438 196.828125 L 1262.5 576.761719 L 909.5 379.886719 Z M 1121.398438 -0.0507812 " clip-rule="nonzero"/></clipPath><clipPath id="585dd094b0"><path d="M 1287 409 L 1290 409 L 1290 412 L 1287 412 Z M 1287 409 " clip-rule="nonzero"/></clipPath><clipPath id="dde35bcc60"><path d="M 1121.398438 -0.0507812 L 1474.398438 196.828125 L 1262.5 576.761719 L 909.5 379.886719 Z M 1121.398438 -0.0507812 " clip-rule="nonzero"/></clipPath><clipPath id="85b48c2747"><path d="M 1121.398438 -0.0507812 L 1474.398438 196.828125 L 1262.5 576.761719 L 909.5 379.886719 Z M 1121.398438 -0.0507812 " clip-rule="nonzero"/></clipPath><clipPath id="fd69359230"><rect x="0" width="1475" y="0" height="1401"/></clipPath></defs><g transform="matrix(1, 0, 0, 1, 25, 25)"><g clip-path="url(#fd69359230)"><path fill="#eb8d00" d="M 374.816406 770.726562 C 380.675781 791.324219 368.734375 812.824219 348.136719 818.683594 C 327.539062 824.542969 306.039062 812.597656 300.183594 791.957031 C 300.089844 791.59375 280.441406 726.019531 281.386719 643.359375 C 219.507812 648.8125 101.558594 679.324219 81.636719 831.527344 C 55.8125 1028.574219 293.511719 1009.285156 294.140625 1009.285156 C 315.503906 1007.84375 333.984375 1024.023438 335.425781 1045.386719 L 340.609375 1296.335938 C 424.035156 1312.96875 674.894531 1351.683594 904.890625 1273.484375 C 925.171875 1266.636719 947.210938 1277.496094 954.0625 1297.777344 C 960.910156 1318.058594 950.050781 1340.054688 929.769531 1346.949219 C 627.617188 1449.664062 294.230469 1365.566406 293.285156 1365.339844 C 276.699219 1361.191406 264.214844 1346.363281 263.855469 1328.472656 L 258.808594 1087.03125 C 171.324219 1083.46875 -25.136719 1050.296875 4.835938 821.566406 C 33.589844 602.074219 211.4375 569.082031 288.960938 565.253906 C 299.011719 512.972656 320.464844 459.742188 361.566406 415.574219 C 403.03125 371 474.648438 329.625 556.40625 308.621094 C 613.960938 293.839844 676.96875 288.792969 738.488281 299.429688 C 801.453125 310.289062 862.929688 337.332031 915.796875 386.503906 C 964.246094 431.574219 1005.078125 495.125 1032.390625 581.75 C 1106.261719 572.871094 1274.285156 569.535156 1350.273438 705.78125 C 1383.488281 765.410156 1394.441406 841.082031 1381.730469 912.382812 C 1374.609375 952.136719 1360.144531 990.804688 1338.105469 1024.742188 C 1315.660156 1059.359375 1285.328125 1089.195312 1246.972656 1110.558594 C 1201.902344 1135.707031 1146.195312 1148.914062 1079.714844 1144.132812 L 1075.433594 1262.128906 C 1074.667969 1283.492188 1056.730469 1300.214844 1035.367188 1299.445312 C 1014.003906 1298.679688 997.28125 1280.742188 998.050781 1259.378906 L 1002.195312 1145.171875 C 912.777344 1215.527344 773.914062 1247.210938 560.417969 1150.398438 C 540.902344 1141.609375 532.203125 1118.625 540.992188 1099.109375 C 549.78125 1079.59375 572.765625 1070.894531 592.28125 1079.683594 C 1015.085938 1271.367188 1079.851562 856.496094 1080.03125 855.324219 C 1083.457031 834.1875 1103.378906 819.855469 1124.515625 823.324219 C 1145.652344 826.75 1159.988281 846.671875 1156.5625 867.808594 C 1156.425781 868.441406 1140.109375 972.640625 1075.523438 1066.117188 C 1130.285156 1071.707031 1174.722656 1062.242188 1209.339844 1042.90625 C 1236.019531 1028.035156 1257.246094 1007.03125 1273.15625 982.558594 C 1289.472656 957.453125 1300.199219 928.609375 1305.5625 898.726562 C 1315.253906 844.597656 1307.277344 787.675781 1282.621094 743.460938 C 1212.449219 617.625 1013.597656 663.371094 1013.058594 663.503906 L 1013.011719 663.371094 C 992.730469 667.832031 972.359375 655.4375 967.222656 635.15625 C 944.460938 546.683594 907.503906 484.710938 862.972656 443.292969 C 822.140625 405.34375 774.457031 384.429688 725.417969 375.957031 C 674.941406 367.214844 623.019531 371.40625 575.515625 383.621094 C 508.359375 400.882812 450.625 433.648438 418.3125 468.398438 C 382.523438 506.839844 366.613281 555.789062 360.9375 603.019531 C 360.980469 604.328125 360.9375 605.679688 360.847656 607.03125 C 360.664062 609.195312 360.351562 611.3125 359.855469 613.34375 C 352.417969 695.777344 374.726562 770.367188 374.816406 770.726562 " fill-opacity="1" fill-rule="nonzero"/><g clip-path="url(#738e38ba87)"><g clip-path="url(#de5a9efdcc)"><g clip-path="url(#240a567c7b)"><path fill="#eb8d00" d="M 1197.695312 59.425781 C 1194.523438 48.261719 1187.039062 39.558594 1177.410156 33.28125 C 1160.125 22.058594 1136.230469 22.882812 1118.335938 32.03125 C 1097.992188 42.53125 1085.597656 64.148438 1077.113281 84.433594 C 1067.800781 106.40625 1059.140625 128.632812 1050.222656 150.710938 C 1029.789062 201.351562 1009.222656 252.027344 988.792969 302.667969 C 986.949219 307.1875 986.230469 312.332031 986.90625 317.011719 C 986.304688 326.410156 988.167969 336.054688 992.859375 344.898438 C 997.867188 354.59375 1012.226562 358.074219 1021.253906 352.242188 C 1021.617188 351.992188 1022.03125 351.65625 1022.394531 351.410156 C 1030.328125 352.207031 1037.976562 348.4375 1042.558594 341.03125 C 1068.324219 299.707031 1093.957031 258.421875 1119.71875 217.09375 C 1132.601562 196.433594 1145.484375 175.769531 1158.234375 155.144531 C 1164.675781 144.8125 1171.117188 134.484375 1177.558594 124.152344 C 1183.042969 115.328125 1189.195312 106.53125 1193.386719 96.984375 C 1198.574219 85.046875 1201.410156 72.25 1197.695312 59.425781 Z M 1157.195312 69.324219 C 1156.945312 68.960938 1156.992188 68.875 1157.195312 69.324219 Z M 1157.929688 70.640625 C 1157.894531 70.507812 1157.855469 70.375 1157.863281 70.152344 C 1157.863281 70.152344 1157.941406 70.421875 1157.929688 70.640625 Z M 1157.230469 69.460938 C 1157.320312 69.507812 1157.269531 69.59375 1157.355469 69.644531 C 1157.355469 69.644531 1157.394531 69.777344 1157.394531 69.777344 C 1157.308594 69.730469 1157.269531 69.59375 1157.230469 69.460938 Z M 1158.265625 71.054688 C 1158.4375 71.152344 1158.5625 71.335938 1158.648438 71.382812 C 1158.5625 71.335938 1158.4375 71.152344 1158.265625 71.054688 Z M 1155.601562 68.324219 C 1155.257812 68.132812 1155.34375 68.179688 1155.601562 68.324219 Z M 1142.4375 66.757812 C 1142.4375 66.757812 1142.351562 66.707031 1142.351562 66.707031 C 1142.304688 66.792969 1142.304688 66.792969 1142.4375 66.757812 Z M 1144.714844 66.328125 C 1145.253906 66.175781 1145.121094 66.214844 1144.714844 66.328125 Z M 1134.972656 70.402344 C 1134.972656 70.402344 1133.742188 71.1875 1133.28125 71.609375 C 1134.019531 70.890625 1134.664062 70.34375 1134.972656 70.402344 Z M 1123.800781 83.53125 C 1124.332031 82.582031 1124.949219 81.679688 1125.5625 80.777344 C 1125.660156 80.605469 1126.082031 80.046875 1126.46875 79.359375 C 1126.988281 78.628906 1128.019531 77.390625 1128.066406 77.304688 C 1128.769531 76.453125 1129.507812 75.734375 1130.210938 74.878906 C 1130.671875 74.457031 1131.894531 72.875 1133.097656 71.734375 C 1133.28125 71.609375 1133.78125 71.324219 1134.558594 70.738281 C 1135.472656 70.117188 1136.386719 69.492188 1137.296875 68.871094 C 1137.933594 68.542969 1138.613281 68.132812 1139.25 67.808594 C 1140.59375 67.425781 1141.9375 67.042969 1143.285156 66.660156 C 1143.859375 66.644531 1144.398438 66.492188 1144.621094 66.5 C 1146.175781 66.351562 1147.757812 66.554688 1149.351562 66.539062 C 1150.054688 66.703125 1150.804688 66.78125 1151.503906 66.945312 C 1152.203125 67.109375 1152.855469 67.359375 1153.558594 67.523438 C 1154.507812 68.054688 1155.503906 68.496094 1156.457031 69.027344 C 1156.542969 69.074219 1156.578125 69.210938 1156.664062 69.257812 C 1156.875 69.488281 1157.210938 69.902344 1157.460938 70.265625 C 1157.539062 70.535156 1157.664062 70.71875 1157.664062 70.71875 C 1157.699219 70.851562 1157.777344 71.121094 1157.816406 71.257812 C 1157.816406 71.257812 1157.851562 71.390625 1157.851562 71.390625 C 1157.863281 72.1875 1157.871094 72.984375 1157.871094 72.984375 C 1157.820312 73.070312 1157.90625 73.121094 1157.90625 73.121094 C 1157.695312 73.90625 1157.433594 74.78125 1157.433594 74.78125 C 1157.210938 75.789062 1156.863281 76.613281 1156.640625 77.621094 C 1156.59375 77.707031 1156.59375 77.707031 1156.59375 77.707031 C 1156.546875 77.792969 1156.5 77.878906 1156.449219 77.964844 C 1146.882812 96.742188 1134.667969 114.382812 1123.546875 132.292969 C 1111.570312 151.535156 1099.59375 170.777344 1087.566406 190.105469 C 1079.074219 203.710938 1070.667969 217.359375 1062.226562 230.875 C 1066.960938 219.140625 1071.742188 207.316406 1076.476562 195.582031 C 1084.953125 174.5 1093.515625 153.464844 1101.988281 132.378906 C 1105.972656 122.601562 1109.78125 112.726562 1113.984375 102.960938 C 1115.863281 98.574219 1117.832031 94.238281 1120.054688 90.042969 C 1121.308594 87.800781 1122.511719 85.640625 1123.800781 83.53125 Z M 1123.800781 83.53125 " fill-opacity="1" fill-rule="nonzero"/></g></g></g><g clip-path="url(#2230e106da)"><g clip-path="url(#5be27f6a26)"><g clip-path="url(#692fed1b90)"><path fill="#eb8d00" d="M 1241.472656 291.679688 C 1249.519531 284.960938 1257.484375 278.195312 1265.53125 271.476562 C 1273.398438 264.882812 1281.742188 258.441406 1288.554688 250.695312 C 1303.765625 233.367188 1311.582031 209.203125 1300.429688 187.589844 C 1289.519531 166.558594 1262.546875 160.121094 1241.417969 168.371094 C 1221.144531 176.308594 1205.671875 193.492188 1190.5625 208.609375 C 1175.828125 223.257812 1161.550781 238.5 1147.832031 254.167969 C 1118.539062 287.414062 1091.449219 322.792969 1066.8125 359.652344 C 1055.304688 373.386719 1051.4375 390.472656 1054.796875 408.195312 C 1056.882812 418.867188 1070.421875 425.851562 1080.441406 422.496094 C 1084.851562 421.898438 1089.097656 419.964844 1092.828125 416.726562 C 1125.859375 388.960938 1158.890625 361.199219 1191.921875 333.433594 C 1208.441406 319.441406 1224.914062 305.535156 1241.472656 291.679688 Z M 1264.015625 207.011719 Z M 1263.21875 206 C 1263.085938 206.039062 1263.085938 206.039062 1263.21875 206 C 1262.75 205.625 1262.835938 205.675781 1263.21875 206 Z M 1258.648438 206.28125 C 1258.246094 206.398438 1257.890625 206.425781 1257.890625 206.425781 C 1257.9375 206.339844 1258.292969 206.3125 1258.648438 206.28125 Z M 1166.078125 301.023438 C 1161.75 304.722656 1157.382812 308.285156 1153.054688 311.984375 C 1156.617188 307.632812 1160.128906 303.363281 1163.773438 299.058594 C 1188.136719 270.195312 1214.015625 242.0625 1242.027344 216.597656 C 1243.460938 215.246094 1244.933594 214.027344 1246.453125 212.726562 C 1246.636719 212.601562 1246.78125 212.339844 1246.960938 212.214844 C 1247.375 211.882812 1247.960938 211.640625 1248.191406 211.429688 C 1249.835938 210.308594 1251.433594 209.277344 1253.066406 208.375 C 1253.566406 208.089844 1254.25 207.675781 1254.882812 207.351562 C 1255.238281 207.324219 1255.777344 207.171875 1256.363281 206.929688 C 1257.167969 206.703125 1258.0625 206.519531 1258.871094 206.292969 C 1259.3125 206.3125 1259.886719 206.292969 1260.242188 206.265625 C 1260.15625 206.21875 1260.117188 206.082031 1260.078125 205.949219 C 1260.078125 205.949219 1260.523438 205.96875 1261.175781 206.21875 C 1262.375 206.097656 1262.363281 206.316406 1261.875 206.382812 C 1262.441406 206.585938 1263.054688 206.703125 1263.449219 206.808594 C 1263.535156 206.855469 1263.574219 206.992188 1263.660156 207.039062 C 1263.660156 207.039062 1263.699219 207.175781 1263.699219 207.175781 C 1263.699219 207.175781 1263.746094 207.085938 1263.660156 207.039062 C 1263.660156 207.039062 1263.746094 207.085938 1263.746094 207.085938 C 1263.746094 207.085938 1263.746094 207.085938 1263.792969 207 C 1263.792969 207 1263.878906 207.050781 1263.832031 207.136719 C 1263.824219 207.355469 1263.898438 207.625 1263.976562 207.894531 C 1264.253906 208.617188 1264.183594 209.144531 1264.050781 209.179688 C 1264.066406 209.757812 1264.085938 210.335938 1264.105469 210.910156 C 1263.835938 212.003906 1263.613281 213.011719 1263.253906 214.058594 C 1262.871094 214.75 1262.558594 215.707031 1262.320312 216.140625 C 1261.742188 217.175781 1261.03125 218.25 1260.453125 219.289062 C 1260.402344 219.375 1260.308594 219.546875 1260.210938 219.71875 C 1260.308594 219.546875 1260.488281 219.421875 1260.585938 219.25 C 1260.488281 219.421875 1260.308594 219.546875 1260.210938 219.71875 C 1259.59375 220.621094 1258.574219 221.636719 1260.164062 219.804688 C 1258.671875 221.464844 1257.316406 223.085938 1255.738281 224.695312 C 1242.328125 238.386719 1226.445312 250.015625 1211.773438 262.320312 C 1196.578125 275.355469 1181.308594 288.121094 1166.078125 301.023438 Z M 1166.078125 301.023438 " fill-opacity="1" fill-rule="nonzero"/></g></g></g><g clip-path="url(#978728ba94)"><g clip-path="url(#0096301636)"><g clip-path="url(#4ddaa97a06)"><path fill="#eb8d00" d="M 1261.960938 206.433594 C 1261.652344 206.375 1261.480469 206.277344 1261.261719 206.265625 C 1261.125 206.304688 1261.125 206.304688 1260.992188 206.34375 C 1260.855469 206.382812 1260.636719 206.371094 1260.328125 206.3125 C 1260.710938 206.640625 1261.558594 206.546875 1261.960938 206.433594 Z M 1261.960938 206.433594 " fill-opacity="1" fill-rule="nonzero"/></g></g></g><g clip-path="url(#2128ec9962)"><g clip-path="url(#55ac7d8fea)"><g clip-path="url(#24632c4cfe)"><path fill="#eb8d00" d="M 1264.175781 209.363281 C 1264.183594 209.144531 1264.195312 208.921875 1264.15625 208.789062 C 1264.167969 208.566406 1264.128906 208.433594 1264.050781 208.164062 C 1264.050781 208.164062 1263.976562 207.894531 1263.9375 207.761719 C 1263.984375 207.675781 1263.984375 207.675781 1263.945312 207.539062 C 1263.996094 207.453125 1263.910156 207.40625 1263.957031 207.320312 C 1263.957031 207.320312 1263.957031 207.320312 1263.871094 207.269531 C 1263.824219 207.355469 1263.910156 207.40625 1263.859375 207.492188 C 1263.859375 207.492188 1263.824219 207.355469 1263.738281 207.308594 C 1263.765625 207.664062 1263.753906 207.886719 1263.792969 208.019531 C 1263.839844 208.949219 1264.039062 209.402344 1264.175781 209.363281 Z M 1264.175781 209.363281 " fill-opacity="1" fill-rule="nonzero"/></g></g></g><g clip-path="url(#9f01d87152)"><g clip-path="url(#125a627b5a)"><g clip-path="url(#79b79ddfda)"><path fill="#eb8d00" d="M 1374.84375 314.78125 C 1352.933594 295.203125 1324.664062 312.605469 1303.527344 323.910156 C 1283.941406 334.269531 1264.84375 345.578125 1246.242188 357.617188 C 1207.710938 382.65625 1171.292969 411.019531 1137.660156 442.296875 C 1127.375 441.652344 1119.519531 448.027344 1115.929688 457.910156 C 1114.15625 462.921875 1112.429688 467.84375 1110.652344 472.855469 C 1108.570312 478.824219 1110.996094 485.835938 1114.640625 490.472656 C 1118.988281 496.066406 1124.441406 497.863281 1131.316406 498.527344 C 1207.066406 505.796875 1284.976562 475.101562 1338.425781 421.484375 C 1352.101562 407.714844 1364.265625 392.199219 1374.394531 375.660156 C 1385.476562 357.617188 1393.386719 331.464844 1374.84375 314.78125 Z M 1351.695312 347.152344 C 1351.597656 347.324219 1351.464844 347.363281 1351.28125 347.488281 C 1351.195312 347.441406 1351.058594 347.476562 1350.886719 347.382812 C 1351.292969 347.265625 1351.644531 347.238281 1351.695312 347.152344 Z M 1344.597656 340.59375 C 1344.550781 340.679688 1344.589844 340.8125 1344.578125 341.035156 C 1344.53125 341.121094 1344.511719 341.5625 1344.53125 342.136719 C 1344.519531 342.359375 1344.375 342.617188 1344.367188 342.839844 C 1344.023438 341.628906 1344.332031 340.667969 1344.597656 340.59375 Z M 1349.660156 347.148438 C 1349.660156 347.148438 1349.746094 347.199219 1349.660156 347.148438 C 1349.660156 347.148438 1349.574219 347.101562 1349.4375 347.140625 C 1349.4375 347.140625 1349.523438 347.1875 1349.523438 347.1875 C 1349.574219 347.101562 1349.660156 347.148438 1349.660156 347.148438 Z M 1350.753906 347.417969 C 1350.839844 347.46875 1350.972656 347.429688 1351.058594 347.476562 C 1350.839844 347.46875 1350.570312 347.542969 1350.398438 347.449219 C 1350.484375 347.496094 1350.617188 347.457031 1350.753906 347.417969 Z M 1184.671875 455.835938 C 1185.292969 455.730469 1185.648438 455.703125 1184.671875 455.835938 Z M 1332.941406 363.523438 C 1331.855469 365.066406 1330.71875 366.699219 1329.632812 368.242188 C 1329.304688 368.625 1329.015625 369.144531 1328.773438 369.574219 C 1328.542969 369.785156 1328.265625 370.082031 1327.792969 370.726562 C 1322.808594 377.226562 1317.441406 383.402344 1311.773438 389.300781 C 1305.878906 395.40625 1299.730469 401.148438 1293.289062 406.609375 C 1292 407.703125 1290.625 408.746094 1289.289062 409.925781 C 1289.421875 409.886719 1289.472656 409.800781 1289.65625 409.675781 C 1289.421875 409.886719 1289.242188 410.011719 1288.925781 410.175781 C 1288.875 410.261719 1288.875 410.261719 1288.742188 410.300781 C 1288.558594 410.425781 1288.375 410.550781 1288.191406 410.675781 C 1287.914062 410.972656 1287.597656 411.132812 1287.316406 411.429688 C 1283.835938 414.019531 1280.269531 416.558594 1276.753906 419.007812 C 1269.90625 423.570312 1262.902344 427.8125 1255.730469 431.734375 C 1252.144531 433.699219 1248.4375 435.480469 1244.726562 437.257812 C 1243.007812 438.109375 1241.199219 438.914062 1239.527344 439.679688 C 1238.941406 439.917969 1238.441406 440.207031 1237.855469 440.445312 C 1237.585938 440.519531 1237.132812 440.722656 1236.414062 441 C 1227.671875 444.5 1218.8125 447.597656 1209.714844 450.105469 C 1205.542969 451.289062 1201.335938 452.339844 1197.089844 453.253906 C 1193.46875 454.066406 1189.03125 454.308594 1185.226562 455.242188 C 1190.890625 450.363281 1196.554688 445.484375 1202.34375 440.789062 C 1206.25 437.644531 1210.152344 434.503906 1214.054688 431.359375 C 1214.285156 431.148438 1214.699219 430.8125 1215.113281 430.476562 C 1215.710938 430.019531 1216.257812 429.644531 1216.769531 429.136719 C 1219.105469 427.382812 1221.488281 425.542969 1223.824219 423.789062 C 1231.84375 417.734375 1239.988281 411.863281 1248.253906 406.171875 C 1265.019531 394.578125 1282.199219 383.671875 1299.835938 373.359375 C 1308.515625 368.351562 1317.28125 363.390625 1326.210938 358.75 C 1330.699219 356.382812 1335.136719 354.105469 1339.578125 351.828125 C 1339.894531 351.664062 1340.210938 351.503906 1340.664062 351.300781 C 1340.328125 351.90625 1340.039062 352.425781 1339.699219 353.027344 C 1337.457031 356.644531 1335.308594 360.089844 1332.941406 363.523438 Z M 1332.941406 363.523438 " fill-opacity="1" fill-rule="nonzero"/></g></g></g><g clip-path="url(#585dd094b0)"><g clip-path="url(#dde35bcc60)"><g clip-path="url(#85b48c2747)"><path fill="#eb8d00" d="M 1288.28125 410.722656 C 1288.511719 410.511719 1288.691406 410.386719 1289.011719 410.222656 C 1289.144531 410.1875 1289.242188 410.011719 1289.375 409.976562 C 1286.550781 411.792969 1287.367188 411.34375 1288.28125 410.722656 Z M 1288.28125 410.722656 " fill-opacity="1" fill-rule="nonzero"/></g></g></g></g></g></svg>